<?xml version="1.0" encoding="UTF-8" standalone="no"?><!DOCTYPE svg PUBLIC "-//W3C//DTD SVG 1.1//EN" "http://www.w3.org/Graphics/SVG/1.1/DTD/svg11.dtd"><svg width="100%" height="100%" viewBox="0 0 64 64" version="1.1" xmlns="http://www.w3.org/2000/svg" xmlns:xlink="http://www.w3.org/1999/xlink" xml:space="preserve" xmlns:serif="http://www.serif.com/" style="fill-rule:evenodd;clip-rule:evenodd;stroke-linejoin:round;stroke-miterlimit:1.41421;"><path d="M36.267,0c0.64,0 1.066,0.427 1.066,1.067l0,16l16,0c0.64,0 1.067,0.426 1.067,1.066l0,35.907c2.534,1.187 4.267,3.749 4.267,6.76c0,0.358 -0.021,0.716 -0.066,1.067l4.332,0c0.64,0 1.067,0.426 1.067,1.066c0,0.64 -0.427,1.067 -1.067,1.067l-61.866,0c-0.64,0 -1.067,-0.427 -1.067,-1.067c0,-0.64 0.427,-1.066 1.067,-1.066l5.333,0l0,-60.8c0,-0.64 0.427,-1.067 1.067,-1.067l28.8,0Zm-27.733,2.133l0,59.734l1.143,0c0.149,-1.029 0.508,-1.997 1.037,-2.853c-0.031,-0.106 -0.047,-0.222 -0.047,-0.347l0,-2.133c0,-0.64 0.426,-1.067 1.066,-1.067c0.64,0 1.067,0.427 1.067,1.067l0,0.283c0.956,-0.661 2.079,-1.103 3.307,-1.243c0.152,-1.034 0.513,-2.007 1.036,-2.87c-0.05,-0.13 -0.076,-0.277 -0.076,-0.437l0,-2.133c0,-0.64 0.426,-1.067 1.066,-1.067c0.64,0 1.067,0.427 1.067,1.067l0,0.332c1.208,-0.877 2.679,-1.399 4.267,-1.399c0.115,0 0.23,0.003 0.345,0.009c0.027,0.001 0.054,0.003 0.081,0.004c0.101,0.006 0.202,0.014 0.303,0.024c0.012,0.001 0.024,0.002 0.036,0.004c0.866,0.09 1.694,0.333 2.455,0.702c0.025,0.011 0.049,0.024 0.073,0.036c0.061,0.03 0.122,0.061 0.182,0.094c0.684,0.361 1.313,0.822 1.858,1.367l0,-33.174c0,-0.64 0.427,-1.066 1.067,-1.066l5.333,0l0,-14.934l-26.666,0Zm25.967,59.734c-0.244,-0.681 -0.367,-1.392 -0.367,-2.133c0,-0.111 0.002,-0.221 0.008,-0.33c0.084,-1.669 0.805,-3.228 2.078,-4.425c-0.646,-0.377 -1.366,-0.579 -2.086,-0.579c-1.387,0 -2.56,0.64 -3.414,1.707l-0.106,0.106c-0.001,0.001 -0.001,0.001 -0.001,0.001c-0.178,0.266 -0.504,0.458 -0.854,0.453c-0.077,0.002 -0.149,-0.006 -0.212,-0.027c0,0 0,0 0,0c-0.053,-0.013 -0.104,-0.03 -0.153,-0.049c-0.002,-0.001 -0.003,-0.001 -0.005,-0.002c-0.042,-0.017 -0.083,-0.037 -0.123,-0.059c-0.017,-0.009 -0.033,-0.019 -0.05,-0.029c-0.015,-0.01 -0.03,-0.02 -0.045,-0.03c-0.234,-0.158 -0.406,-0.396 -0.478,-0.684c-0.32,-2.667 -2.56,-4.587 -5.226,-4.587c-2.987,0 -5.334,2.347 -5.334,5.333c0,0.64 -0.426,1.067 -1.066,1.067c-0.085,0 -0.169,0.002 -0.253,0.006c-0.057,0.003 -0.113,0.007 -0.169,0.011c-0.021,0.002 -0.043,0.003 -0.064,0.005c-2.341,0.213 -4.242,1.948 -4.741,4.245l22.661,0Zm21.926,0c0.106,-0.32 0.106,-0.747 0.106,-1.067c0,-2.987 -2.346,-5.333 -5.333,-5.333c-0.87,0 -1.701,0.198 -2.434,0.566c-0.114,0.113 -0.259,0.196 -0.427,0.242c-0.779,0.492 -1.419,1.193 -1.832,2.072c-0.155,0.31 -0.367,0.506 -0.635,0.55c-0.112,0.057 -0.224,0.09 -0.325,0.09c-0.534,0 -0.854,-0.32 -0.96,-0.64c-0.854,-2.347 -3.627,-3.52 -5.974,-2.24c-0.154,0.077 -0.321,0.111 -0.488,0.11c-0.172,0.118 -0.335,0.249 -0.487,0.391c-0.8,0.777 -1.265,1.839 -1.265,3.019c0,0.736 0.239,1.55 0.646,2.24l19.408,0Zm-4.16,-8.458l0,-34.209l-21.334,0l0,33.907c0.827,-0.486 1.782,-0.76 2.753,-0.825c0.021,-0.001 0.041,-0.002 0.061,-0.003c0.051,-0.003 0.102,-0.006 0.152,-0.008c0.078,-0.003 0.156,-0.005 0.234,-0.005c0.102,0 0.203,0.003 0.305,0.008c0.05,0.003 0.1,0.007 0.151,0.01c0.047,0.004 0.094,0.007 0.14,0.011c0.065,0.006 0.129,0.014 0.192,0.021c0.031,0.004 0.062,0.008 0.093,0.013c0.07,0.009 0.139,0.02 0.207,0.032c0.029,0.004 0.057,0.01 0.085,0.015c0.066,0.013 0.131,0.025 0.196,0.039c0.08,0.018 0.159,0.037 0.239,0.057c0.009,0.003 0.019,0.005 0.029,0.007c0.908,0.238 1.77,0.669 2.507,1.268c0.075,-0.028 0.15,-0.054 0.225,-0.079c0.61,-0.248 1.363,-0.335 2.031,-0.335c0.248,0 0.493,0.015 0.734,0.043c0.103,-0.028 0.214,-0.043 0.333,-0.043c0.304,0 0.559,0.097 0.744,0.267c1.287,0.389 2.425,1.188 3.309,2.293c0.052,-0.059 0.105,-0.116 0.159,-0.173c0.341,-0.37 0.717,-0.702 1.121,-0.993l0,-0.327c0,-0.64 0.427,-1.067 1.067,-1.067c0.373,0 0.673,0.146 0.859,0.394c0.746,-0.257 1.536,-0.394 2.341,-0.394c0.363,0 0.718,0.027 1.067,0.076Zm-40.534,-0.076c0.64,0 1.067,-0.426 1.067,-1.066l0,-2.134c0,-0.64 -0.427,-1.066 -1.067,-1.066c-0.64,0 -1.066,0.426 -1.066,1.066l0,2.134c0,0.64 0.426,1.066 1.066,1.066Zm36.267,-2.133c0.64,0 1.067,-0.427 1.067,-1.067l0,-2.133c0,-0.64 -0.427,-1.067 -1.067,-1.067c-0.64,0 -1.067,0.427 -1.067,1.067l0,2.133c0,0.64 0.427,1.067 1.067,1.067Zm-6.4,0c0.64,0 1.067,-0.427 1.067,-1.067l0,-2.133c0,-0.64 -0.427,-1.067 -1.067,-1.067c-0.64,0 -1.067,0.427 -1.067,1.067l0,2.133c0,0.64 0.427,1.067 1.067,1.067Zm-6.4,-4.267c-0.64,0 -1.067,0.427 -1.067,1.067l0,2.133c0,0.64 0.427,1.067 1.067,1.067c0.64,0 1.067,-0.427 1.067,-1.067l0,-2.133c0,-0.64 -0.427,-1.067 -1.067,-1.067Zm-17.067,0c0.64,0 1.067,-0.426 1.067,-1.066l0,-2.134c0,-0.64 -0.427,-1.066 -1.067,-1.066c-0.64,0 -1.066,0.426 -1.066,1.066l0,2.134c0,0.64 0.426,1.066 1.066,1.066Zm-6.4,0c0.64,0 1.067,-0.426 1.067,-1.066l0,-2.134c0,-0.64 -0.427,-1.066 -1.067,-1.066c-0.64,0 -1.066,0.426 -1.066,1.066l0,2.134c0,0.64 0.426,1.066 1.066,1.066Zm12.8,0c0.64,0 1.067,-0.426 1.067,-1.066l0,-2.134c0,-0.64 -0.427,-1.066 -1.067,-1.066c-0.64,0 -1.066,0.426 -1.066,1.066l0,2.134c0,0.64 0.426,1.066 1.066,1.066Zm10.667,-6.4c-0.64,0 -1.067,0.427 -1.067,1.067l0,2.133c0,0.64 0.427,1.067 1.067,1.067c0.64,0 1.067,-0.427 1.067,-1.067l0,-2.133c0,-0.64 -0.427,-1.067 -1.067,-1.067Zm6.4,4.267c0.64,0 1.067,-0.427 1.067,-1.067l0,-2.133c0,-0.64 -0.427,-1.067 -1.067,-1.067c-0.64,0 -1.067,0.427 -1.067,1.067l0,2.133c0,0.64 0.427,1.067 1.067,1.067Zm6.4,0c0.64,0 1.067,-0.427 1.067,-1.067l0,-2.133c0,-0.64 -0.427,-1.067 -1.067,-1.067c-0.64,0 -1.067,0.427 -1.067,1.067l0,2.133c0,0.64 0.427,1.067 1.067,1.067Zm-29.867,-4.267c0.64,0 1.067,-0.426 1.067,-1.066l0,-2.134c0,-0.64 -0.427,-1.066 -1.067,-1.066c-0.64,0 -1.066,0.426 -1.066,1.066l0,2.134c0,0.64 0.426,1.066 1.066,1.066Zm-6.4,0c0.64,0 1.067,-0.426 1.067,-1.066l0,-2.134c0,-0.64 -0.427,-1.066 -1.067,-1.066c-0.64,0 -1.066,0.426 -1.066,1.066l0,2.134c0,0.64 0.426,1.066 1.066,1.066Zm12.8,0c0.64,0 1.067,-0.426 1.067,-1.066l0,-2.134c0,-0.64 -0.427,-1.066 -1.067,-1.066c-0.64,0 -1.066,0.426 -1.066,1.066l0,2.134c0,0.64 0.426,1.066 1.066,1.066Zm10.667,-6.4c-0.64,0 -1.067,0.427 -1.067,1.067l0,2.133c0,0.64 0.427,1.067 1.067,1.067c0.64,0 1.067,-0.427 1.067,-1.067l0,-2.133c0,-0.64 -0.427,-1.067 -1.067,-1.067Zm12.8,4.267c0.64,0 1.067,-0.427 1.067,-1.067l0,-2.133c0,-0.64 -0.427,-1.067 -1.067,-1.067c-0.64,0 -1.067,0.427 -1.067,1.067l0,2.133c0,0.64 0.427,1.067 1.067,1.067Zm-6.4,0c0.64,0 1.067,-0.427 1.067,-1.067l0,-2.133c0,-0.64 -0.427,-1.067 -1.067,-1.067c-0.64,0 -1.067,0.427 -1.067,1.067l0,2.133c0,0.64 0.427,1.067 1.067,1.067Zm-29.867,-4.267c0.64,0 1.067,-0.426 1.067,-1.066l0,-2.134c0,-0.64 -0.427,-1.066 -1.067,-1.066c-0.64,0 -1.066,0.426 -1.066,1.066l0,2.134c0,0.64 0.426,1.066 1.066,1.066Zm6.4,0c0.64,0 1.067,-0.426 1.067,-1.066l0,-2.134c0,-0.64 -0.427,-1.066 -1.067,-1.066c-0.64,0 -1.066,0.426 -1.066,1.066l0,2.134c0,0.64 0.426,1.066 1.066,1.066Zm6.4,0c0.64,0 1.067,-0.426 1.067,-1.066l0,-2.134c0,-0.64 -0.427,-1.066 -1.067,-1.066c-0.64,0 -1.066,0.426 -1.066,1.066l0,2.134c0,0.64 0.426,1.066 1.066,1.066Zm23.467,-2.133c0.64,0 1.067,-0.427 1.067,-1.067l0,-2.133c0,-0.64 -0.427,-1.067 -1.067,-1.067c-0.64,0 -1.067,0.427 -1.067,1.067l0,2.133c0,0.64 0.427,1.067 1.067,1.067Zm-6.4,0c0.64,0 1.067,-0.427 1.067,-1.067l0,-2.133c0,-0.64 -0.427,-1.067 -1.067,-1.067c-0.64,0 -1.067,0.427 -1.067,1.067l0,2.133c0,0.64 0.427,1.067 1.067,1.067Zm-6.4,-4.267c-0.64,0 -1.067,0.427 -1.067,1.067l0,2.133c0,0.64 0.427,1.067 1.067,1.067c0.64,0 1.067,-0.427 1.067,-1.067l0,-2.133c0,-0.64 -0.427,-1.067 -1.067,-1.067Zm-17.067,0c0.64,0 1.067,-0.426 1.067,-1.066l0,-2.134c0,-0.64 -0.427,-1.066 -1.067,-1.066c-0.64,0 -1.066,0.426 -1.066,1.066l0,2.134c0,0.64 0.426,1.066 1.066,1.066Zm-6.4,0c0.64,0 1.067,-0.426 1.067,-1.066l0,-2.134c0,-0.64 -0.427,-1.066 -1.067,-1.066c-0.64,0 -1.066,0.426 -1.066,1.066l0,2.134c0,0.64 0.426,1.066 1.066,1.066Zm12.8,0c0.64,0 1.067,-0.426 1.067,-1.066l0,-2.134c0,-0.64 -0.427,-1.066 -1.067,-1.066c-0.64,0 -1.066,0.426 -1.066,1.066l0,2.134c0,0.64 0.426,1.066 1.066,1.066Zm23.467,-2.133c0.64,0 1.067,-0.427 1.067,-1.067l0,-2.133c0,-0.64 -0.427,-1.067 -1.067,-1.067c-0.64,0 -1.067,0.427 -1.067,1.067l0,2.133c0,0.64 0.427,1.067 1.067,1.067Zm-6.4,0c0.64,0 1.067,-0.427 1.067,-1.067l0,-2.133c0,-0.64 -0.427,-1.067 -1.067,-1.067c-0.64,0 -1.067,0.427 -1.067,1.067l0,2.133c0,0.64 0.427,1.067 1.067,1.067Zm-6.4,-4.267c-0.64,0 -1.067,0.427 -1.067,1.067l0,2.133c0,0.64 0.427,1.067 1.067,1.067c0.64,0 1.067,-0.427 1.067,-1.067l0,-2.133c0,-0.64 -0.427,-1.067 -1.067,-1.067Zm-23.467,0c0.64,0 1.067,-0.426 1.067,-1.066l0,-2.134c0,-0.64 -0.427,-1.066 -1.067,-1.066c-0.64,0 -1.066,0.426 -1.066,1.066l0,2.134c0,0.64 0.426,1.066 1.066,1.066Zm6.4,0c0.64,0 1.067,-0.426 1.067,-1.066l0,-2.134c0,-0.64 -0.427,-1.066 -1.067,-1.066c-0.64,0 -1.066,0.426 -1.066,1.066l0,2.134c0,0.64 0.426,1.066 1.066,1.066Zm6.4,0c0.64,0 1.067,-0.426 1.067,-1.066l0,-2.134c0,-0.64 -0.427,-1.066 -1.067,-1.066c-0.64,0 -1.066,0.426 -1.066,1.066l0,2.134c0,0.64 0.426,1.066 1.066,1.066Zm-12.8,-6.4c0.64,0 1.067,-0.426 1.067,-1.066l0,-2.134c0,-0.64 -0.427,-1.066 -1.067,-1.066c-0.64,0 -1.066,0.426 -1.066,1.066l0,2.134c0,0.64 0.426,1.066 1.066,1.066Zm6.4,0c0.64,0 1.067,-0.426 1.067,-1.066l0,-2.134c0,-0.64 -0.427,-1.066 -1.067,-1.066c-0.64,0 -1.066,0.426 -1.066,1.066l0,2.134c0,0.64 0.426,1.066 1.066,1.066Zm12.8,0c0.64,0 1.067,-0.426 1.067,-1.066l0,-2.134c0,-0.64 -0.427,-1.066 -1.067,-1.066c-0.64,0 -1.066,0.426 -1.066,1.066l0,2.134c0,0.64 0.426,1.066 1.066,1.066Zm-6.4,0c0.64,0 1.067,-0.426 1.067,-1.066l0,-2.134c0,-0.64 -0.427,-1.066 -1.067,-1.066c-0.64,0 -1.066,0.426 -1.066,1.066l0,2.134c0,0.64 0.426,1.066 1.066,1.066Zm-6.4,-6.4c0.64,0 1.067,-0.426 1.067,-1.066l0,-2.134c0,-0.64 -0.427,-1.066 -1.067,-1.066c-0.64,0 -1.066,0.426 -1.066,1.066l0,2.134c0,0.64 0.426,1.066 1.066,1.066Zm-6.4,0c0.64,0 1.067,-0.426 1.067,-1.066l0,-2.134c0,-0.64 -0.427,-1.066 -1.067,-1.066c-0.64,0 -1.066,0.426 -1.066,1.066l0,2.134c0,0.64 0.426,1.066 1.066,1.066Zm12.8,0c0.64,0 1.067,-0.426 1.067,-1.066l0,-2.134c0,-0.64 -0.427,-1.066 -1.067,-1.066c-0.64,0 -1.066,0.426 -1.066,1.066l0,2.134c0,0.64 0.426,1.066 1.066,1.066Zm6.4,0c0.64,0 1.067,-0.426 1.067,-1.066l0,-2.134c0,-0.64 -0.427,-1.066 -1.067,-1.066c-0.64,0 -1.066,0.426 -1.066,1.066l0,2.134c0,0.64 0.426,1.066 1.066,1.066Z" style="fill:#202333;"/></svg>