<?xml version="1.0" encoding="UTF-8" standalone="no"?><!DOCTYPE svg PUBLIC "-//W3C//DTD SVG 1.1//EN" "http://www.w3.org/Graphics/SVG/1.1/DTD/svg11.dtd"><svg width="100%" height="100%" viewBox="0 0 64 64" version="1.1" xmlns="http://www.w3.org/2000/svg" xmlns:xlink="http://www.w3.org/1999/xlink" xml:space="preserve" xmlns:serif="http://www.serif.com/" style="fill-rule:evenodd;clip-rule:evenodd;stroke-linejoin:round;stroke-miterlimit:1.41421;"><path d="M20.267,0.027c0.64,0 1.066,0.426 1.066,1.066l0,4.265c0,0.64 -0.426,1.066 -1.066,1.066l-1.067,0l0,2.697l8.213,-7.282c2.56,-2.452 6.614,-2.452 9.174,0l24.533,21.751c0.747,0.64 0.96,1.706 0.64,2.559c-0.32,0.853 -1.28,1.599 -2.24,1.599l-0.853,0l0,26.78c3.04,0.472 5.333,3.112 5.333,6.273c0,0.853 -0.213,1.706 -0.533,2.559c-0.214,0.427 -0.534,0.64 -0.96,0.64l-61.014,0c-0.426,0 -0.853,-0.213 -0.96,-0.64c-0.32,-0.853 -0.533,-1.706 -0.533,-2.559c0,-3.161 2.293,-5.801 5.333,-6.273l0,-26.78l-0.853,0c-0.96,0 -1.92,-0.639 -2.24,-1.492c-0.32,-0.96 -0.107,-1.92 0.64,-2.666l5.653,-5.012l0,-12.154l-1.066,0c-0.64,0 -1.067,-0.426 -1.067,-1.066l0,-4.265c0,-0.64 0.427,-1.066 1.067,-1.066l12.8,0Zm17.066,61.841l0,-18.126c0,-2.986 -2.346,-5.331 -5.333,-5.331c-2.987,0 -5.333,2.345 -5.333,5.331l0,18.126l10.666,0Zm3.305,-0.001l-0.003,-0.017c-0.101,-0.318 -0.102,-0.735 -0.102,-1.049c0,-3.198 2.347,-5.864 5.44,-6.29c0.427,-3.092 3.094,-5.438 6.294,-5.438c1.405,0 2.707,0.452 3.761,1.221c0.174,0.12 0.343,0.246 0.505,0.378l0,-22.924l-49.066,0l0,22.924c1.173,-1.066 2.666,-1.599 4.266,-1.599c3.2,0 5.867,2.346 6.294,5.438c3.093,0.426 5.44,3.092 5.44,6.29c0,0.315 -0.001,0.731 -0.102,1.049c-0.001,0.006 -0.002,0.012 -0.003,0.018l1.171,0l0,-18.126c0,-4.159 3.307,-7.464 7.467,-7.464c4.16,0 7.467,3.305 7.467,7.464l0,18.125l1.171,0Zm21.015,0.001c0.107,-0.32 0.107,-0.747 0.107,-1.067c0,-2.345 -1.92,-4.265 -4.267,-4.265c-0.64,0 -1.066,-0.426 -1.066,-1.066c0,-2.327 -1.891,-4.234 -4.214,-4.263c-2.322,0.029 -4.213,1.936 -4.213,4.263c0,0.64 -0.427,1.066 -1.067,1.066c-2.346,0 -4.266,1.92 -4.266,4.265c0,0.332 0.041,0.704 0.123,1.067l18.863,0Zm-40.533,-0.001c0.107,-0.32 0.107,-0.746 0.107,-1.066c0,-2.346 -1.92,-4.265 -4.267,-4.265c-0.64,0 -1.067,-0.426 -1.067,-1.066c0,-2.328 -1.891,-4.234 -4.213,-4.263c-2.322,0.028 -4.213,1.935 -4.213,4.263c0,0.533 -0.427,0.96 -0.96,1.066c-0.104,0.017 -0.204,0.016 -0.3,0.002c-2.307,0.047 -4.18,1.947 -4.18,4.263c0.106,0.32 0.106,0.747 0.213,1.066l18.88,0Zm-9.387,-8.529c-1.493,0 -2.56,0.959 -2.986,1.492c-0.427,0.534 -0.32,1.173 0.213,1.493c0.533,0.427 1.173,0.32 1.493,-0.213c0,0 0.534,-0.64 1.28,-0.64c0.96,0 1.174,0.427 1.174,0.427c0.106,0.426 0.533,0.639 0.96,0.639c0.106,0 0.213,0 0.32,-0.106c0.533,-0.213 0.853,-0.853 0.64,-1.386c-0.214,-0.64 -1.174,-1.706 -3.094,-1.706Zm40.534,0c-1.494,0 -2.56,0.959 -2.987,1.492c-0.427,0.534 -0.32,1.173 0.213,1.493c0.534,0.427 1.174,0.213 1.494,-0.213c0,0 0.533,-0.64 1.28,-0.64c0.96,0 1.173,0.427 1.173,0.427c0.107,0.426 0.534,0.639 0.96,0.639c0.107,0 0.214,0 0.32,-0.106c0.534,-0.213 0.854,-0.853 0.64,-1.386c-0.213,-0.64 -1.173,-1.706 -3.093,-1.706Zm-22.4,-4.265c0.64,0 1.066,0.426 1.066,1.066c0,0.64 -0.426,1.066 -1.066,1.066l-1.067,0c-0.64,0 -1.067,-0.426 -1.067,-1.066c0,-0.64 0.427,-1.066 1.067,-1.066l1.067,0Zm23.466,-19.192c0.64,0 1.067,0.426 1.067,1.066l0,9.596c0.64,0 1.067,0.427 1.067,1.066c0,0.64 -0.427,1.067 -1.067,1.067l-1.067,0l0,-0.001l-11.733,0c-0.64,0 -1.067,-0.426 -1.067,-1.066c0,-0.639 0.427,-1.066 1.067,-1.066l0,-9.596c0,-0.64 0.427,-1.066 1.067,-1.066l10.666,0Zm-32,0c0.64,0 1.067,0.426 1.067,1.066l0,9.596c0.64,0 1.067,0.427 1.067,1.066c0,0.64 -0.427,1.066 -1.067,1.066l-12.8,0c-0.64,0 -1.067,-0.426 -1.067,-1.066c0,-0.639 0.427,-1.066 1.067,-1.066l0,-9.596c0,-0.64 0.427,-1.066 1.067,-1.066l10.666,0Zm-6.4,6.397l-3.2,0l0,4.265l8.534,0l0,-4.265l-3.2,0l0,1.066c0,0.64 -0.427,1.067 -1.067,1.067c-0.64,0 -1.067,-0.427 -1.067,-1.067l0,-1.066Zm32,0l-3.2,0l0,4.265l8.534,0l0,-4.265l-3.2,0c-0.001,0.64 -0.427,1.066 -1.067,1.066c-0.64,0 -1.067,-0.426 -1.067,-1.066Zm-26.666,-2.132l0,-2.133l-8.534,0l0,2.133l8.534,0Zm32,0l0,-2.133l-8.534,0l0,2.133l8.534,0Zm7.253,-8.637c0.001,0 0.107,0 0.213,-0.106c0.107,-0.107 0,-0.214 -0.106,-0.214l-24.534,-21.75c-0.853,-0.853 -2.026,-1.28 -3.093,-1.28c-1.067,0 -2.24,0.427 -3.093,1.28l-24.534,21.75c-0.106,0.107 -0.106,0.107 -0.106,0.214c0,0.106 0.106,0.106 0.213,0.106l55.04,0Zm-48.853,-14.82l0,5.998l6.4,-5.675l0,-4.588l-6.4,0l0,2.133l2.133,0c0.64,0 1.067,0.426 1.067,1.066c0,0.639 -0.427,1.066 -1.067,1.066l-2.133,0Zm-2.134,-8.53l0,2.133l10.667,0l0,-2.133l-10.667,0Z" style="fill:#202333;"/></svg>