<?xml version="1.0" encoding="UTF-8" standalone="no"?><!DOCTYPE svg PUBLIC "-//W3C//DTD SVG 1.1//EN" "http://www.w3.org/Graphics/SVG/1.1/DTD/svg11.dtd"><svg width="100%" height="100%" viewBox="0 0 64 48" version="1.1" xmlns="http://www.w3.org/2000/svg" xmlns:xlink="http://www.w3.org/1999/xlink" xml:space="preserve" xmlns:serif="http://www.serif.com/" style="fill-rule:evenodd;clip-rule:evenodd;stroke-linejoin:round;stroke-miterlimit:1.41421;"><g><path d="M62.933,39.467l-2.133,0l0,-36.054c0,-1.92 -1.387,-3.413 -3.2,-3.413l-51.2,0c-1.707,0 -3.2,1.493 -3.2,3.413l0,36.054l-2.133,0c-0.64,0 -1.067,0.426 -1.067,1.066l0,3.84c0,2.027 1.6,3.627 3.627,3.627l56.746,0c2.027,0 3.627,-1.6 3.627,-3.627l0,-3.84c0,-0.64 -0.427,-1.066 -1.067,-1.066Zm-57.6,-36.054c0,-0.746 0.534,-1.28 1.067,-1.28l51.2,0c0.533,0 1.067,0.534 1.067,1.28l0,36.054l-19.2,0c-0.32,0 -0.534,0.106 -0.747,0.32l-1.813,1.813l-9.814,0l-1.813,-1.813c-0.213,-0.214 -0.427,-0.32 -0.747,-0.32l-19.2,0l0,-36.054l0,0Zm56.534,40.96c0,0.854 -0.64,1.494 -1.494,1.494l-56.746,0c-0.854,0 -1.494,-0.64 -1.494,-1.494l0,-2.773l21.974,0l1.813,1.813c0.213,0.214 0.427,0.32 0.747,0.32l10.666,0c0.32,0 0.534,-0.106 0.747,-0.32l1.813,-1.813l21.974,0l0,2.773Z" style="fill:#202333;fill-rule:nonzero;"/><path d="M29.412,28.141c0.07,0.153 0.181,0.289 0.333,0.397c0.202,0.191 0.457,0.262 0.713,0.262c0.034,0 0.07,-0.003 0.107,-0.009c0.009,-0.001 0.018,-0.002 0.027,-0.004c0.15,-0.026 0.315,-0.092 0.423,-0.199c0.111,-0.086 0.212,-0.195 0.297,-0.321l10.666,-16c0.32,-0.534 0.214,-1.174 -0.32,-1.494c-0.533,-0.32 -1.173,-0.213 -1.493,0.32l-9.869,14.803l-4.424,-5.309c-0.32,-0.427 -1.067,-0.534 -1.494,-0.107c-0.426,0.32 -0.533,1.067 -0.106,1.493l5.14,6.168Z" style="fill:#202333;fill-rule:nonzero;"/></g></svg>