<?xml version="1.0" encoding="UTF-8" standalone="no"?><!DOCTYPE svg PUBLIC "-//W3C//DTD SVG 1.1//EN" "http://www.w3.org/Graphics/SVG/1.1/DTD/svg11.dtd"><svg width="100%" height="100%" viewBox="0 0 64 64" version="1.1" xmlns="http://www.w3.org/2000/svg" xmlns:xlink="http://www.w3.org/1999/xlink" xml:space="preserve" xmlns:serif="http://www.serif.com/" style="fill-rule:evenodd;clip-rule:evenodd;stroke-linejoin:round;stroke-miterlimit:1.41421;"><g><path d="M50.05,37.333l2.13,0c0.639,0 1.065,-0.426 1.065,-1.066c0,-0.64 -0.426,-1.067 -1.065,-1.067l-2.13,0c-0.639,0 -1.065,0.427 -1.065,1.067c0,0.64 0.426,1.066 1.065,1.066Z" style="fill:#202333;fill-rule:nonzero;"/><path d="M50.05,48l2.13,0c0.639,0 1.065,-0.427 1.065,-1.067c0,-0.64 -0.426,-1.066 -1.065,-1.066l-2.13,0c-0.639,0 -1.065,0.426 -1.065,1.066c0,0.64 0.426,1.067 1.065,1.067Z" style="fill:#202333;fill-rule:nonzero;"/><path d="M50.05,58.667l2.13,0c0.639,0 1.065,-0.427 1.065,-1.067c0,-0.64 -0.426,-1.067 -1.065,-1.067l-2.13,0c-0.639,0 -1.065,0.427 -1.065,1.067c0,0.64 0.426,1.067 1.065,1.067Z" style="fill:#202333;fill-rule:nonzero;"/><path d="M62.829,25.493l-5.325,0l0,-10.56c0,-0.64 -0.426,-1.066 -1.065,-1.066l-3.194,0l0,-3.2c0,-0.64 -0.426,-1.067 -1.065,-1.067l-4.26,0c-0.639,0 -1.065,0.427 -1.065,1.067l0,1.066l-3.194,0c-0.639,0 -1.065,0.427 -1.065,1.067l0,12.693l-13.95,0l0,-0.64c0,-1.386 -1.065,-2.453 -2.45,-2.453l-0.639,0l0,-1.067l10.649,0c1.172,0 2.13,-0.96 2.13,-2.133l0,-3.2l0,-13.867c0,-1.173 -0.958,-2.133 -2.13,-2.133l-27.687,0c-1.171,0 -2.13,0.96 -2.13,2.133l0,17.067c0,1.173 0.959,2.133 2.13,2.133l10.649,0l0,1.067l-0.745,0c-1.385,0 -2.45,1.067 -2.45,2.453l0,0.64l-14.802,0c-0.639,0 -1.171,0.534 -1.171,1.174l0,4.16c0,0.64 0.532,1.173 1.171,1.173l0.959,0l0,30.933c0,0.64 0.426,1.067 1.065,1.067l4.259,0c0.639,0 1.065,-0.427 1.065,-1.067l0,-30.933l31.947,0l0,30.933c0,0.64 0.426,1.067 1.065,1.067l19.168,0c0.639,0 1.065,-0.427 1.065,-1.067l0,-10.666l0,-10.667l0,-9.6l0.958,0c0.639,0 1.172,-0.533 1.278,-1.173l0,-4.16c0,-0.64 -0.532,-1.174 -1.171,-1.174Zm-7.455,-9.493l0,9.493l-2.129,0l0,-9.493l2.129,0Zm-6.389,-4.267l2.13,0l0,13.76l-2.13,0l0,-12.693l0,-1.067Zm-4.259,2.134l2.129,0l0,11.626l-2.129,0l0,-11.626Zm-8.52,-11.734l0,12.8l-27.687,0l0,-12.8l27.687,0Zm-27.687,14.934l27.688,0l0,2.133l-11.714,0l-4.26,0l-11.714,0l0,-2.133Zm12.779,4.266l2.13,0l0,1.067l-2.13,0l0,-1.067Zm-3.088,3.52c0,-0.213 0.106,-0.32 0.319,-0.32l7.774,0c0.213,0 0.319,0.107 0.319,0.32l0,0.64l-8.412,0l0,-0.64Zm-11.821,37.014l-2.129,0l0,-29.867l2.129,0l0,29.867Zm53.245,-10.667l-17.038,0l0,-8.533l17.038,0l0,8.533l0,0Zm0,10.667l-17.038,0l0,-8.534l17.038,0l0,8.534l0,0Zm0,-21.334l-17.038,0l0,-8.533l17.038,0l0,8.533l0,0Zm2.13,-10.666l-1.065,0l-19.168,0l-34.077,0l-4.259,0l-1.065,0l0,-2.134l59.634,0l0,2.134Z" style="fill:#202333;fill-rule:nonzero;"/><path d="M10.649,7.467c0.319,0 0.532,-0.107 0.745,-0.32l2.13,-2.134c0.426,-0.426 0.426,-1.066 0,-1.493c-0.426,-0.427 -1.065,-0.427 -1.491,0l-2.129,2.133c-0.426,0.427 -0.426,1.067 0,1.494c0.213,0.213 0.425,0.32 0.745,0.32Z" style="fill:#202333;fill-rule:nonzero;"/><path d="M10.968,11.413c0.213,0.214 0.426,0.32 0.746,0.32c0.319,0 0.532,-0.106 0.745,-0.32l5.325,-5.333c0.426,-0.427 0.426,-1.067 0,-1.493c-0.426,-0.427 -1.065,-0.427 -1.491,0l-5.325,5.333c-0.426,0.427 -0.426,1.067 0,1.493Z" style="fill:#202333;fill-rule:nonzero;"/></g></svg>