<?xml version="1.0" encoding="UTF-8" standalone="no"?><!DOCTYPE svg PUBLIC "-//W3C//DTD SVG 1.1//EN" "http://www.w3.org/Graphics/SVG/1.1/DTD/svg11.dtd"><svg width="100%" height="100%" viewBox="0 0 32 33" version="1.1" xmlns="http://www.w3.org/2000/svg" xmlns:xlink="http://www.w3.org/1999/xlink" xml:space="preserve" xmlns:serif="http://www.serif.com/" style="fill-rule:evenodd;clip-rule:evenodd;stroke-linejoin:round;stroke-miterlimit:1.41421;"><g id="internet"><path d="M16,0.517c-8.822,0 -16,7.177 -16,16c0,8.822 7.178,16 16,16c8.822,0 16,-7.178 16,-16c0,-8.823 -7.178,-16 -16,-16Zm-7.318,28.972c2.163,1.225 4.66,1.925 7.318,1.925c8.214,0 14.897,-6.683 14.897,-14.897c0,-0.182 -0.003,-0.362 -0.01,-0.542l-22.205,0l0,13.514Zm19.795,-21.103c-2.662,-4.071 -7.26,-6.766 -12.477,-6.766c-8.214,0 -14.897,6.682 -14.897,14.897c0,5.1 2.576,9.609 6.495,12.296l0,-13.922l0,0l0,-2.3c0,-2.319 1.886,-4.205 4.205,-4.205l16.674,0Zm-10.477,16.589c-0.633,0.475 -1.42,0.757 -2.271,0.757c-2.092,0 -3.794,-1.703 -3.794,-3.795c0,-2.092 1.702,-3.794 3.794,-3.794c2.092,0 3.794,1.702 3.794,3.794c0,0.851 -0.281,1.638 -0.756,2.272l3.308,3.308c0.211,0.211 0.211,0.554 0,0.766c-0.106,0.106 -0.245,0.159 -0.383,0.159c-0.139,0 -0.278,-0.053 -0.384,-0.159l-3.308,-3.308Zm-2.271,-0.327c-1.495,0 -2.71,-1.216 -2.71,-2.711c0,-1.494 1.215,-2.71 2.71,-2.71c1.494,0 2.71,1.216 2.71,2.71c0,1.495 -1.216,2.711 -2.71,2.711Zm13.394,-15.178l-17.32,0c-1.721,0 -3.121,1.4 -3.121,3.121l0,2.3l22.127,0c-0.212,-1.943 -0.799,-3.774 -1.686,-5.421Zm-8.787,1.075c-1.051,0 -1.906,0.855 -1.906,1.906c0,1.052 0.855,1.907 1.906,1.907c1.052,0 1.907,-0.855 1.907,-1.907c0,-1.051 -0.855,-1.906 -1.907,-1.906Zm-8.672,0.009c-1.047,0 -1.898,0.852 -1.898,1.897c0,1.046 0.851,1.898 1.898,1.898c1.046,0 1.897,-0.852 1.897,-1.898c0,-1.045 -0.851,-1.897 -1.897,-1.897Zm4.336,0c-1.046,0 -1.897,0.852 -1.897,1.897c0,1.046 0.851,1.898 1.897,1.898c1.046,0 1.897,-0.852 1.897,-1.898c0,-1.045 -0.851,-1.897 -1.897,-1.897Zm-4.336,2.71c-0.449,0 -0.814,-0.364 -0.814,-0.813c0,-0.448 0.365,-0.813 0.814,-0.813c0.448,0 0.813,0.365 0.813,0.813c0,0.449 -0.365,0.813 -0.813,0.813Zm4.336,0c-0.448,0 -0.813,-0.364 -0.813,-0.813c0,-0.448 0.365,-0.813 0.813,-0.813c0.448,0 0.813,0.365 0.813,0.813c0,0.449 -0.365,0.813 -0.813,0.813Zm4.336,-0.009c-0.443,0 -0.803,-0.36 -0.803,-0.804c0,-0.443 0.36,-0.803 0.803,-0.803c0.444,0 0.804,0.36 0.804,0.803c0,0.444 -0.36,0.804 -0.804,0.804Z" style="fill:#3d4fae;"/></g></svg>