<?xml version="1.0" encoding="UTF-8" standalone="no"?><!DOCTYPE svg PUBLIC "-//W3C//DTD SVG 1.1//EN" "http://www.w3.org/Graphics/SVG/1.1/DTD/svg11.dtd"><svg width="100%" height="100%" viewBox="0 0 18 33" version="1.1" xmlns="http://www.w3.org/2000/svg" xmlns:xlink="http://www.w3.org/1999/xlink" xml:space="preserve" xmlns:serif="http://www.serif.com/" style="fill-rule:evenodd;clip-rule:evenodd;stroke-linejoin:round;stroke-miterlimit:1.41421;"><g id="internet-mobile"><path d="M14.933,0.517c1.494,0 2.667,1.173 2.667,2.666l0,26.667c0,1.493 -1.173,2.667 -2.667,2.667l-11.733,0c-1.493,0 -2.667,-1.174 -2.667,-2.667l0,-18.667c-0.32,0 -0.533,-0.213 -0.533,-0.533c0,-0.32 0.213,-0.533 0.533,-0.533l0,-1.067c-0.32,0 -0.533,-0.213 -0.533,-0.533c0,-0.32 0.213,-0.534 0.533,-0.534l0,-1.6c-0.32,0 -0.533,-0.213 -0.533,-0.533c0,-0.32 0.213,-0.533 0.533,-0.533l0,-2.134c0,-1.493 1.174,-2.666 2.667,-2.666l11.733,0Zm0,30.933c0.907,0 1.6,-0.693 1.6,-1.6l0,-2.667l-14.933,0l0,2.667c0,0.907 0.693,1.6 1.6,1.6l11.733,0Zm-5.866,-1.067c0.586,0 1.066,-0.48 1.066,-1.066c0,-0.587 -0.48,-1.067 -1.066,-1.067c-0.587,0 -1.067,0.48 -1.067,1.067c0,0.586 0.48,1.066 1.067,1.066Zm7.466,-4.266l0,-20.267l-14.933,0l0,20.267l14.933,0Zm-8,-2.667c0.32,0 0.534,0.213 0.534,0.533c0,0.32 -0.214,0.534 -0.534,0.534l-5.333,0c-0.32,0 -0.533,-0.214 -0.533,-0.534c0,-0.32 0.213,-0.533 0.533,-0.533l5.333,0Zm6.4,-6.4c0.32,0 0.534,0.213 0.534,0.533l0,6.4c0,0.32 -0.214,0.534 -0.534,0.534l-4.266,0c-0.32,0 -0.534,-0.214 -0.534,-0.534l0,-6.4c0,-0.32 0.214,-0.533 0.534,-0.533l4.266,0Zm-0.533,6.4l0,-5.333l-3.2,0l0,5.333l3.2,0Zm-6.933,-2.133c0.32,0 0.533,0.213 0.533,0.533c0,0.32 -0.213,0.533 -0.533,0.533l-4.267,0c-0.32,0 -0.533,-0.213 -0.533,-0.533c0,-0.32 0.213,-0.533 0.533,-0.533l4.267,0Zm-3.2,-1.6c0.32,0 0.533,0.213 0.533,0.533c0,0.32 -0.213,0.533 -0.533,0.533l-1.067,0c-0.32,0 -0.533,-0.213 -0.533,-0.533c0,-0.32 0.213,-0.533 0.533,-0.533l1.067,0Zm4.266,-0.534c0.32,0 0.534,0.214 0.534,0.534c0,0.32 -0.214,0.533 -0.534,0.533l-2.133,0c-0.32,0 -0.533,-0.213 -0.533,-0.533c0,-0.32 0.213,-0.534 0.533,-0.534l2.133,0Zm-2.133,-2.133c0.32,0 0.533,0.213 0.533,0.533c0,0.32 -0.213,0.534 -0.533,0.534l-3.2,0c-0.32,0 -0.533,-0.214 -0.533,-0.534c0,-0.32 0.213,-0.533 0.533,-0.533l3.2,0Zm8.533,-3.2c0.32,0 0.534,0.213 0.534,0.533c0,0.32 -0.214,0.534 -0.534,0.534l-4.8,0c-0.32,0 -0.533,-0.214 -0.533,-0.534c0,-0.32 0.213,-0.533 0.533,-0.533l4.8,0Zm-6.933,-6.4c0.32,0 0.533,0.213 0.533,0.533l0,6.4c0,0.32 -0.213,0.534 -0.533,0.534l-4.8,0c-0.32,0 -0.533,-0.214 -0.533,-0.534l0,-6.4c0,-0.32 0.213,-0.533 0.533,-0.533l4.8,0Zm-0.533,6.4l0,-5.333l-3.734,0l0,5.333l3.734,0Zm5.333,-2.133c0.32,0 0.533,0.213 0.533,0.533c0,0.32 -0.213,0.533 -0.533,0.533l-2.667,0c-0.32,0 -0.533,-0.213 -0.533,-0.533c0,-0.32 0.213,-0.533 0.533,-0.533l2.667,0Zm-1.6,-2.134c0.32,0 0.533,0.214 0.533,0.534c0,0.32 -0.213,0.533 -0.533,0.533l-1.067,0c-0.32,0 -0.533,-0.213 -0.533,-0.533c0,-0.32 0.213,-0.534 0.533,-0.534l1.067,0Zm3.733,0c0.32,0 0.534,0.214 0.534,0.534c0,0.32 -0.214,0.533 -0.534,0.533l-1.6,0c-0.32,0 -0.533,-0.213 -0.533,-0.533c0,-0.32 0.213,-0.534 0.533,-0.534l1.6,0Zm-1.066,-2.133c0.32,0 0.533,0.213 0.533,0.533c0,0.32 -0.213,0.534 -0.533,0.534l-3.734,0c-0.32,0 -0.533,-0.214 -0.533,-0.534c0,-0.32 0.213,-0.533 0.533,-0.533l3.734,0Zm2.666,-2.667l0,-1.6c0,-0.906 -0.693,-1.6 -1.6,-1.6l-11.733,0c-0.907,0 -1.6,0.694 -1.6,1.6l0,1.6l14.933,0Zm-6.4,-2.133c0.32,0 0.534,0.213 0.534,0.533c0,0.32 -0.214,0.534 -0.534,0.534l-2.133,0c-0.32,0 -0.533,-0.214 -0.533,-0.534c0,-0.32 0.213,-0.533 0.533,-0.533l2.133,0Zm-4.266,0c-0.32,0 -0.534,0.213 -0.534,0.533c0,0.32 0.214,0.534 0.534,0.534c0.32,0 0.533,-0.214 0.533,-0.534c0,-0.32 -0.213,-0.533 -0.533,-0.533Z" style="fill:#3d4fae;"/></g></svg>