<?xml version="1.0" encoding="UTF-8" standalone="no"?><!DOCTYPE svg PUBLIC "-//W3C//DTD SVG 1.1//EN" "http://www.w3.org/Graphics/SVG/1.1/DTD/svg11.dtd"><svg width="100%" height="100%" viewBox="0 0 192 51" version="1.1" xmlns="http://www.w3.org/2000/svg" xmlns:xlink="http://www.w3.org/1999/xlink" xml:space="preserve" xmlns:serif="http://www.serif.com/" style="fill-rule:evenodd;clip-rule:evenodd;stroke-linejoin:round;stroke-miterlimit:1.41421;"><g><g><path d="M78.284,10.658l-4.225,0l0,10.147l-3.746,0l0,-10.147l-4.225,0l0,-3.064l12.196,0l0,3.064Z" style="fill:#fff;fill-rule:nonzero;"/><path d="M84.294,18.042c0.235,0.033 0.549,0.063 0.943,0.088c0.394,0.025 0.759,0.038 1.094,0.038c0.839,0 1.492,-0.105 1.962,-0.314c0.469,-0.21 0.704,-0.591 0.704,-1.143c0,-0.536 -0.214,-0.908 -0.641,-1.118c-0.428,-0.209 -1.052,-0.314 -1.874,-0.314l-2.188,0l0,2.763Zm2.113,-5.274c0.62,0 1.123,-0.08 1.509,-0.239c0.385,-0.159 0.578,-0.506 0.578,-1.042c0,-0.502 -0.218,-0.846 -0.654,-1.03c-0.436,-0.184 -1.006,-0.276 -1.71,-0.276c-0.235,0 -0.541,0.013 -0.918,0.038c-0.377,0.025 -0.683,0.054 -0.918,0.088l0,2.461l2.113,0Zm-0.126,8.288c-0.469,0 -0.972,-0.017 -1.509,-0.05c-0.536,-0.034 -1.064,-0.08 -1.584,-0.139c-0.52,-0.058 -1.01,-0.125 -1.471,-0.2c-0.461,-0.076 -0.851,-0.147 -1.17,-0.214l0,-12.658c0.319,-0.067 0.709,-0.13 1.17,-0.188c0.461,-0.059 0.951,-0.113 1.471,-0.164c0.52,-0.05 1.048,-0.087 1.584,-0.113c0.537,-0.025 1.04,-0.037 1.509,-0.037c1.09,0 2.008,0.109 2.754,0.326c0.746,0.218 1.349,0.503 1.81,0.854c0.461,0.352 0.792,0.745 0.994,1.181c0.201,0.435 0.301,0.87 0.301,1.306c0,0.586 -0.142,1.121 -0.427,1.607c-0.285,0.485 -0.646,0.837 -1.082,1.055c0.235,0.1 0.474,0.243 0.717,0.427c0.243,0.184 0.465,0.406 0.667,0.665c0.201,0.26 0.364,0.57 0.49,0.929c0.126,0.36 0.189,0.775 0.189,1.244c0,0.535 -0.105,1.055 -0.315,1.557c-0.209,0.502 -0.566,0.946 -1.069,1.331c-0.502,0.385 -1.165,0.695 -1.986,0.929c-0.822,0.235 -1.836,0.352 -3.043,0.352Z" style="fill:#fff;fill-rule:nonzero;"/><path d="M107.958,14.174c0,1.038 -0.151,1.989 -0.453,2.851c-0.301,0.862 -0.737,1.599 -1.307,2.21c-0.57,0.611 -1.254,1.084 -2.05,1.419c-0.796,0.335 -1.689,0.502 -2.678,0.502c-0.972,0 -1.857,-0.167 -2.653,-0.502c-0.796,-0.335 -1.48,-0.808 -2.05,-1.419c-0.57,-0.611 -1.014,-1.348 -1.332,-2.21c-0.319,-0.862 -0.478,-1.813 -0.478,-2.851c0,-1.038 0.163,-1.984 0.49,-2.838c0.327,-0.854 0.78,-1.582 1.358,-2.185c0.579,-0.603 1.266,-1.071 2.062,-1.406c0.797,-0.335 1.664,-0.502 2.603,-0.502c0.956,0 1.832,0.167 2.628,0.502c0.796,0.335 1.479,0.803 2.049,1.406c0.57,0.603 1.015,1.331 1.333,2.185c0.319,0.854 0.478,1.8 0.478,2.838Zm-3.822,0c0,-1.155 -0.231,-2.063 -0.692,-2.725c-0.461,-0.661 -1.119,-0.992 -1.974,-0.992c-0.855,0 -1.517,0.331 -1.987,0.992c-0.469,0.662 -0.704,1.57 -0.704,2.725c0,1.156 0.235,2.072 0.704,2.75c0.47,0.678 1.132,1.018 1.987,1.018c0.855,0 1.513,-0.34 1.974,-1.018c0.461,-0.678 0.692,-1.594 0.692,-2.75Z" style="fill:#fff;fill-rule:nonzero;"/><path d="M122.895,7.594l0,13.211l-3.772,0c0,-0.838 0.009,-1.671 0.025,-2.499c0.017,-0.829 0.034,-1.595 0.051,-2.298c0.017,-0.704 0.037,-1.319 0.063,-1.846c0.025,-0.528 0.037,-0.917 0.037,-1.168c-0.486,0.686 -0.972,1.381 -1.458,2.084c-0.486,0.704 -0.952,1.394 -1.396,2.072c-0.444,0.679 -0.863,1.327 -1.257,1.947c-0.394,0.619 -0.742,1.189 -1.044,1.708l-3.294,0l0,-13.211l3.747,0c0,0.837 -0.004,1.637 -0.013,2.399c-0.008,0.761 -0.021,1.452 -0.037,2.072c-0.017,0.619 -0.034,1.159 -0.051,1.62c-0.017,0.46 -0.025,0.816 -0.025,1.067c1.006,-1.474 1.932,-2.796 2.779,-3.968c0.846,-1.172 1.672,-2.236 2.477,-3.19l3.168,0Zm-5.985,-1.808c-0.536,0 -1.052,-0.08 -1.546,-0.239c-0.495,-0.159 -0.943,-0.393 -1.346,-0.703c-0.402,-0.31 -0.733,-0.686 -0.993,-1.13c-0.26,-0.444 -0.415,-0.95 -0.465,-1.52l2.59,-0.678c0.134,0.637 0.356,1.089 0.666,1.356c0.311,0.268 0.675,0.402 1.094,0.402c0.436,0 0.809,-0.121 1.119,-0.364c0.311,-0.243 0.533,-0.699 0.667,-1.369l2.565,0.678c-0.05,0.57 -0.206,1.076 -0.465,1.52c-0.26,0.444 -0.587,0.816 -0.981,1.118c-0.394,0.301 -0.843,0.531 -1.346,0.69c-0.502,0.159 -1.022,0.239 -1.559,0.239Z" style="fill:#fff;fill-rule:nonzero;"/><path d="M77.781,43.408l-1.634,0l0,-11.603l-6.765,0l0,11.603l-1.635,0l0,-12.984l10.034,0l0,12.984Z" style="fill:#fff;fill-rule:nonzero;"/><path d="M83.64,41.072c0.151,0.118 0.34,0.243 0.566,0.377c0.227,0.134 0.491,0.26 0.792,0.377c0.302,0.117 0.629,0.213 0.981,0.289c0.352,0.075 0.721,0.113 1.107,0.113c0.804,0 1.479,-0.138 2.024,-0.415c0.545,-0.276 0.985,-0.653 1.32,-1.13c0.335,-0.477 0.579,-1.038 0.729,-1.683c0.151,-0.644 0.227,-1.326 0.227,-2.046c0,-1.708 -0.428,-3.018 -1.283,-3.931c-0.855,-0.912 -1.986,-1.369 -3.395,-1.369c-0.804,0 -1.454,0.038 -1.949,0.113c-0.494,0.076 -0.867,0.155 -1.119,0.239l0,9.066Zm0,6.982l-1.634,0l0,-17.178c0.486,-0.168 1.106,-0.327 1.861,-0.477c0.754,-0.151 1.71,-0.226 2.867,-0.226c0.955,0 1.823,0.154 2.602,0.464c0.78,0.31 1.45,0.758 2.012,1.344c0.562,0.586 0.998,1.297 1.308,2.135c0.31,0.837 0.465,1.783 0.465,2.838c0,0.987 -0.13,1.896 -0.39,2.725c-0.26,0.828 -0.641,1.54 -1.144,2.134c-0.503,0.595 -1.119,1.059 -1.848,1.394c-0.73,0.335 -1.564,0.503 -2.503,0.503c-0.855,0 -1.596,-0.122 -2.225,-0.365c-0.629,-0.242 -1.086,-0.473 -1.371,-0.69l0,5.399Z" style="fill:#fff;fill-rule:nonzero;"/><path d="M107.757,36.929c0,1.021 -0.147,1.95 -0.44,2.787c-0.294,0.837 -0.705,1.549 -1.233,2.135c-0.528,0.586 -1.152,1.042 -1.873,1.369c-0.721,0.326 -1.517,0.49 -2.389,0.49c-0.872,0 -1.668,-0.164 -2.389,-0.49c-0.721,-0.327 -1.345,-0.783 -1.874,-1.369c-0.528,-0.586 -0.938,-1.298 -1.232,-2.135c-0.293,-0.837 -0.44,-1.766 -0.44,-2.787c0,-1.022 0.147,-1.951 0.44,-2.788c0.294,-0.837 0.704,-1.553 1.232,-2.148c0.529,-0.594 1.153,-1.054 1.874,-1.381c0.721,-0.326 1.517,-0.49 2.389,-0.49c0.872,0 1.668,0.164 2.389,0.49c0.721,0.327 1.345,0.787 1.873,1.381c0.528,0.595 0.939,1.311 1.233,2.148c0.293,0.837 0.44,1.766 0.44,2.788Zm-1.736,0c0,-1.625 -0.377,-2.918 -1.131,-3.881c-0.755,-0.963 -1.777,-1.444 -3.068,-1.444c-1.291,0 -2.314,0.481 -3.068,1.444c-0.754,0.963 -1.132,2.256 -1.132,3.881c0,1.624 0.378,2.913 1.132,3.867c0.754,0.955 1.777,1.432 3.068,1.432c1.291,0 2.313,-0.477 3.068,-1.432c0.754,-0.954 1.131,-2.243 1.131,-3.867Z" style="fill:#fff;fill-rule:nonzero;"/><path d="M115.401,30.147c0.503,0 1.069,0.03 1.698,0.088c0.628,0.059 1.219,0.201 1.773,0.426c0.553,0.226 1.018,0.577 1.395,1.053c0.377,0.476 0.566,1.124 0.566,1.942c0,0.635 -0.184,1.199 -0.553,1.692c-0.369,0.493 -0.872,0.857 -1.509,1.091c0.939,0.251 1.618,0.654 2.037,1.207c0.419,0.554 0.629,1.233 0.629,2.038c0,0.872 -0.176,1.573 -0.528,2.101c-0.353,0.528 -0.818,0.931 -1.396,1.208c-0.579,0.276 -1.232,0.457 -1.962,0.541c-0.729,0.083 -1.471,0.125 -2.225,0.125c-0.905,0 -1.698,-0.058 -2.377,-0.175c-0.679,-0.118 -1.261,-0.243 -1.747,-0.377l0,-12.407c0.419,-0.134 0.972,-0.26 1.659,-0.377c0.688,-0.117 1.534,-0.176 2.54,-0.176Zm-2.565,5.702l2.968,0c1.006,0 1.819,-0.167 2.439,-0.5c0.62,-0.333 0.93,-0.89 0.93,-1.673c0,-0.499 -0.109,-0.89 -0.327,-1.173c-0.217,-0.283 -0.502,-0.496 -0.855,-0.637c-0.352,-0.142 -0.754,-0.233 -1.207,-0.275c-0.452,-0.041 -0.905,-0.062 -1.358,-0.062c-0.553,0 -1.081,0.029 -1.584,0.088c-0.503,0.058 -0.838,0.113 -1.006,0.163l0,4.069Zm0,1.356l0,4.797c0.084,0.033 0.222,0.063 0.415,0.088c0.193,0.025 0.411,0.05 0.654,0.075c0.243,0.025 0.503,0.046 0.78,0.063c0.276,0.017 0.54,0.025 0.792,0.025c0.57,0 1.115,-0.034 1.634,-0.101c0.52,-0.068 0.973,-0.198 1.358,-0.391c0.386,-0.194 0.696,-0.455 0.931,-0.783c0.234,-0.328 0.352,-0.761 0.352,-1.3c0,-0.471 -0.097,-0.866 -0.289,-1.186c-0.193,-0.32 -0.461,-0.572 -0.805,-0.757c-0.344,-0.185 -0.746,-0.32 -1.207,-0.404c-0.461,-0.084 -0.96,-0.126 -1.496,-0.126l-3.119,0Z" style="fill:#fff;fill-rule:nonzero;"/><path d="M129.233,42.228c0.637,0 1.194,-0.021 1.672,-0.063c0.478,-0.042 0.884,-0.096 1.219,-0.163l0,-4.571c-0.184,-0.084 -0.477,-0.172 -0.88,-0.264c-0.402,-0.092 -0.955,-0.138 -1.659,-0.138c-0.403,0 -0.822,0.029 -1.258,0.088c-0.436,0.058 -0.838,0.184 -1.207,0.377c-0.369,0.192 -0.67,0.456 -0.905,0.791c-0.235,0.335 -0.352,0.778 -0.352,1.331c0,0.485 0.079,0.896 0.239,1.23c0.159,0.335 0.385,0.603 0.679,0.804c0.293,0.201 0.645,0.348 1.056,0.44c0.411,0.092 0.876,0.138 1.396,0.138Zm-0.151,-12.106c0.855,0 1.58,0.122 2.175,0.364c0.595,0.243 1.077,0.578 1.446,1.005c0.369,0.427 0.637,0.934 0.805,1.52c0.167,0.586 0.251,1.222 0.251,1.908l0,8.188c-0.168,0.05 -0.411,0.104 -0.729,0.163c-0.319,0.059 -0.688,0.121 -1.107,0.188c-0.419,0.067 -0.884,0.122 -1.395,0.164c-0.512,0.042 -1.036,0.062 -1.572,0.062c-0.687,0 -1.32,-0.075 -1.899,-0.226c-0.578,-0.15 -1.081,-0.389 -1.509,-0.715c-0.427,-0.327 -0.762,-0.745 -1.005,-1.256c-0.244,-0.511 -0.365,-1.134 -0.365,-1.871c0,-0.703 0.134,-1.306 0.402,-1.808c0.269,-0.503 0.646,-0.917 1.132,-1.244c0.486,-0.326 1.064,-0.565 1.735,-0.715c0.671,-0.151 1.4,-0.226 2.188,-0.226c0.235,0 0.482,0.012 0.742,0.037c0.26,0.025 0.511,0.059 0.754,0.101c0.243,0.042 0.453,0.083 0.629,0.125c0.176,0.042 0.297,0.08 0.364,0.113l0,-0.803c0,-0.453 -0.033,-0.892 -0.1,-1.319c-0.067,-0.427 -0.214,-0.812 -0.44,-1.155c-0.227,-0.344 -0.545,-0.62 -0.956,-0.829c-0.411,-0.209 -0.951,-0.314 -1.622,-0.314c-0.955,0 -1.668,0.067 -2.137,0.201c-0.47,0.134 -0.813,0.243 -1.031,0.326l-0.227,-1.431c0.285,-0.134 0.725,-0.26 1.321,-0.377c0.595,-0.117 1.311,-0.176 2.15,-0.176Z" style="fill:#fff;fill-rule:nonzero;"/><path d="M146.685,32.508c-0.506,0.601 -1.093,1.361 -1.759,2.279c-0.666,0.918 -1.337,1.889 -2.012,2.913c-0.676,1.023 -1.322,2.039 -1.939,3.045c-0.617,1.007 -1.153,1.895 -1.608,2.663l-1.534,0l0,-12.984l1.609,0l0,10.397c0.404,-0.719 0.903,-1.551 1.498,-2.498c0.595,-0.946 1.228,-1.9 1.898,-2.863c0.671,-0.963 1.345,-1.888 2.024,-2.776c0.679,-0.887 1.312,-1.641 1.898,-2.26l1.534,0l0,12.984l-1.609,0l0,-10.9Zm-3.622,-4.294c-0.938,0 -1.71,-0.26 -2.313,-0.779c-0.604,-0.519 -0.989,-1.256 -1.157,-2.21l1.333,-0.352c0.1,0.57 0.323,1.034 0.666,1.394c0.344,0.36 0.834,0.54 1.471,0.54c0.637,0 1.128,-0.18 1.472,-0.54c0.343,-0.36 0.565,-0.824 0.666,-1.394l1.333,0.352c-0.168,0.954 -0.554,1.691 -1.157,2.21c-0.604,0.519 -1.375,0.779 -2.314,0.779Z" style="fill:#fff;fill-rule:nonzero;"/><path d="M162.829,42.027l1.484,0l0,4.973l-1.584,0l0,-3.592l-10.109,0l0,3.592l-1.585,0l0,-4.973l1.333,0c0.553,-0.871 0.993,-1.708 1.32,-2.512c0.327,-0.803 0.579,-1.624 0.755,-2.461c0.176,-0.837 0.293,-1.72 0.352,-2.65c0.058,-0.929 0.088,-1.946 0.088,-3.051l0,-0.929l7.946,0l0,11.603Zm-6.412,-10.222c0,0.904 -0.03,1.792 -0.088,2.662c-0.059,0.871 -0.172,1.733 -0.34,2.587c-0.167,0.854 -0.402,1.695 -0.704,2.524c-0.302,0.829 -0.696,1.645 -1.182,2.449l7.092,0l0,-10.222l-4.778,0Z" style="fill:#fff;fill-rule:nonzero;"/><path d="M166.476,36.903c0,-1.138 0.163,-2.13 0.49,-2.976c0.327,-0.845 0.755,-1.553 1.283,-2.122c0.528,-0.569 1.131,-0.992 1.81,-1.268c0.679,-0.277 1.379,-0.415 2.1,-0.415c1.593,0 2.863,0.519 3.81,1.557c0.947,1.039 1.421,2.638 1.421,4.797c0,0.134 -0.005,0.268 -0.013,0.402c-0.008,0.134 -0.021,0.26 -0.038,0.377l-9.128,0c0.05,1.591 0.444,2.813 1.182,3.667c0.737,0.854 1.911,1.281 3.52,1.281c0.889,0 1.593,-0.084 2.113,-0.251c0.519,-0.168 0.897,-0.31 1.131,-0.427l0.302,1.406c-0.235,0.134 -0.675,0.293 -1.32,0.477c-0.646,0.184 -1.404,0.276 -2.276,0.276c-1.14,0 -2.112,-0.167 -2.917,-0.502c-0.805,-0.335 -1.467,-0.804 -1.987,-1.406c-0.519,-0.603 -0.897,-1.319 -1.131,-2.148c-0.235,-0.828 -0.352,-1.737 -0.352,-2.725Zm9.229,-1.029c-0.034,-1.357 -0.352,-2.411 -0.956,-3.165c-0.603,-0.753 -1.458,-1.13 -2.565,-1.13c-0.587,0 -1.111,0.117 -1.572,0.352c-0.461,0.234 -0.863,0.548 -1.207,0.941c-0.343,0.394 -0.612,0.85 -0.804,1.369c-0.193,0.519 -0.306,1.063 -0.34,1.633l7.444,0Z" style="fill:#fff;fill-rule:nonzero;"/><path d="M182.519,41.072c0.151,0.118 0.34,0.243 0.566,0.377c0.227,0.134 0.491,0.26 0.792,0.377c0.302,0.117 0.629,0.213 0.981,0.289c0.352,0.075 0.721,0.113 1.107,0.113c0.804,0 1.479,-0.138 2.024,-0.415c0.545,-0.276 0.985,-0.653 1.32,-1.13c0.336,-0.477 0.579,-1.038 0.73,-1.683c0.15,-0.644 0.226,-1.326 0.226,-2.046c0,-1.708 -0.428,-3.018 -1.283,-3.931c-0.855,-0.912 -1.986,-1.369 -3.395,-1.369c-0.804,0 -1.454,0.038 -1.948,0.113c-0.495,0.076 -0.868,0.155 -1.12,0.239l0,9.066Zm0,6.982l-1.634,0l0,-17.178c0.486,-0.168 1.106,-0.327 1.861,-0.477c0.754,-0.151 1.71,-0.226 2.867,-0.226c0.955,0 1.823,0.154 2.602,0.464c0.78,0.31 1.45,0.758 2.012,1.344c0.562,0.586 0.998,1.297 1.308,2.135c0.31,0.837 0.465,1.783 0.465,2.838c0,0.987 -0.13,1.896 -0.39,2.725c-0.26,0.828 -0.641,1.54 -1.144,2.134c-0.503,0.595 -1.119,1.059 -1.848,1.394c-0.73,0.335 -1.564,0.503 -2.502,0.503c-0.855,0 -1.597,-0.122 -2.226,-0.365c-0.629,-0.242 -1.086,-0.473 -1.371,-0.69l0,5.399Z" style="fill:#fff;fill-rule:nonzero;"/></g><path d="M38.645,50.333l-27.226,0c-6.307,0 -11.419,-5.105 -11.419,-11.403l0,-27.192c0,-6.298 5.112,-11.405 11.419,-11.405l38.645,0l0,38.597c0,6.298 -5.112,11.403 -11.419,11.403" style="fill:#e72b26;fill-rule:nonzero;"/><rect x="12.517" y="12.834" width="12.516" height="12.5" style="fill:#f07758;"/><rect x="25.031" y="12.834" width="12.517" height="12.5" style="fill:#fff;"/><rect x="25.031" y="25.333" width="12.517" height="12.501" style="fill:#f07758;"/></g></svg>