<?xml version="1.0" encoding="UTF-8" standalone="no"?><!DOCTYPE svg PUBLIC "-//W3C//DTD SVG 1.1//EN" "http://www.w3.org/Graphics/SVG/1.1/DTD/svg11.dtd"><svg width="100%" height="100%" viewBox="0 0 24 25" version="1.1" xmlns="http://www.w3.org/2000/svg" xmlns:xlink="http://www.w3.org/1999/xlink" xml:space="preserve" xmlns:serif="http://www.serif.com/" style="fill-rule:evenodd;clip-rule:evenodd;stroke-linejoin:round;stroke-miterlimit:1.41421;"><g><path d="M0,19.509l0,-13.069c0,-3.027 2.451,-5.481 5.474,-5.481l13.052,0c3.023,0 5.474,2.454 5.474,5.481l0,18.55l-18.526,0c-3.023,0 -5.474,-2.454 -5.474,-5.481" style="fill:#e72b26;fill-rule:nonzero;"/><path d="M18,6.967l0,6.008l-6,0l0,-6.008l6,0Z" style="fill:#f07758;"/><path d="M18,12.974l0,6.008l-6,0l0,-6.008l6,0Z" style="fill:#fff;"/><path d="M12,12.974l0,6.008l-6,0l0,-6.008l6,0Z" style="fill:#f07758;"/></g></svg>