<?xml version="1.0" encoding="UTF-8" standalone="no"?><!DOCTYPE svg PUBLIC "-//W3C//DTD SVG 1.1//EN" "http://www.w3.org/Graphics/SVG/1.1/DTD/svg11.dtd"><svg width="100%" height="100%" viewBox="0 0 32 33" version="1.1" xmlns="http://www.w3.org/2000/svg" xmlns:xlink="http://www.w3.org/1999/xlink" xml:space="preserve" xmlns:serif="http://www.serif.com/" style="fill-rule:evenodd;clip-rule:evenodd;stroke-linejoin:round;stroke-miterlimit:1.41421;"><g id="minutes"><path d="M22.717,0.517c1.295,0 2.349,1.054 2.349,2.349l0,27.301c0,1.295 -1.054,2.35 -2.35,2.35l-13.434,0c-1.295,0 -2.349,-1.055 -2.349,-2.35l0,-27.301c0,-1.295 1.054,-2.349 2.349,-2.349l13.435,0Zm1.282,25.6l-16,0l0,4.05c0,0.708 0.576,1.283 1.283,1.283l13.435,0c0.707,0 1.282,-0.575 1.282,-1.283l0,-4.05Zm-8,0.533c-1.176,0 -2.133,0.957 -2.133,2.133c0,1.177 0.957,2.134 2.133,2.134c1.177,0 2.134,-0.957 2.134,-2.134c0,-1.176 -0.957,-2.133 -2.134,-2.133Zm0,3.2c-0.588,0 -1.066,-0.478 -1.066,-1.067c0,-0.588 0.478,-1.066 1.066,-1.066c0.589,0 1.067,0.478 1.067,1.066c0,0.589 -0.478,1.067 -1.067,1.067Zm8,-4.8l0,-20.267l-16,0l0,20.267l16,0Zm-21.438,-21.342c0.208,-0.209 0.208,-0.546 0,-0.754c-0.209,-0.209 -0.546,-0.209 -0.755,0c-2.408,2.408 -2.408,6.327 0,8.736c0.104,0.104 0.241,0.156 0.377,0.156c0.137,0 0.274,-0.052 0.378,-0.156c0.208,-0.209 0.208,-0.546 0,-0.755c-1.994,-1.992 -1.994,-5.234 0,-7.227Zm27.632,-0.754c-0.209,-0.209 -0.546,-0.209 -0.755,0c-0.208,0.208 -0.208,0.545 0,0.754c1.993,1.992 1.993,5.234 0,7.227c-0.208,0.209 -0.208,0.546 0,0.755c0.104,0.104 0.241,0.156 0.377,0.156c0.137,0 0.274,-0.052 0.378,-0.156c2.408,-2.408 2.408,-6.328 0,-8.736Zm-2.246,1.213c-0.209,-0.208 -0.546,-0.208 -0.754,0c-0.209,0.209 -0.209,0.546 0,0.755c0.659,0.659 1.022,1.538 1.022,2.474c0,0.935 -0.363,1.814 -1.022,2.473c-0.209,0.209 -0.209,0.546 0,0.754c0.104,0.104 0.24,0.157 0.377,0.157c0.136,0 0.273,-0.053 0.377,-0.157c0.861,-0.86 1.335,-2.007 1.335,-3.227c0,-1.221 -0.473,-2.368 -1.335,-3.229Zm-23.141,-0.147c-0.208,-0.208 -0.545,-0.208 -0.754,0c-0.861,0.861 -1.335,2.008 -1.335,3.228c0,1.22 0.474,2.367 1.335,3.228c0.104,0.104 0.241,0.157 0.377,0.157c0.137,0 0.273,-0.053 0.377,-0.157c0.209,-0.208 0.209,-0.545 0,-0.754c-0.659,-0.66 -1.023,-1.539 -1.023,-2.474c0,-0.935 0.363,-1.814 1.023,-2.474c0.208,-0.208 0.208,-0.545 0,-0.754Zm17.91,-2.437l-13.434,0c-0.707,0 -1.283,0.576 -1.283,1.283l0,0.851l16,0l0,-0.851c0,-0.707 -0.575,-1.283 -1.283,-1.283Zm-4.583,0.534c0.295,0 0.533,0.238 0.533,0.533c0,0.295 -0.238,0.533 -0.533,0.533l-0.534,0c-0.294,0 -0.533,-0.238 -0.533,-0.533c0,-0.295 0.239,-0.533 0.533,-0.533l0.534,0Zm-2.134,0c0.295,0 0.534,0.238 0.534,0.533c0,0.295 -0.239,0.533 -0.534,0.533l-2.133,0c-0.295,0 -0.533,-0.238 -0.533,-0.533c0,-0.295 0.238,-0.533 0.533,-0.533l2.133,0Z" style="fill:#3d4fae;"/></g></svg>