<?xml version="1.0" encoding="UTF-8" standalone="no"?><!DOCTYPE svg PUBLIC "-//W3C//DTD SVG 1.1//EN" "http://www.w3.org/Graphics/SVG/1.1/DTD/svg11.dtd"><svg width="100%" height="100%" viewBox="0 0 32 33" version="1.1" xmlns="http://www.w3.org/2000/svg" xmlns:xlink="http://www.w3.org/1999/xlink" xml:space="preserve" xmlns:serif="http://www.serif.com/" style="fill-rule:evenodd;clip-rule:evenodd;stroke-linejoin:round;stroke-miterlimit:1.41421;"><path d="M25.72,32.517c-1.332,0 -2.94,-0.334 -4.707,-1c-3.878,-1.463 -8.095,-4.352 -11.878,-8.134c-3.782,-3.783 -6.671,-8.001 -8.134,-11.88c-1.331,-3.525 -1.335,-6.418 -0.011,-7.742c0.192,-0.192 0.387,-0.396 0.587,-0.606c1.209,-1.27 2.607,-2.714 4.384,-2.635c1.249,0.052 2.457,0.827 3.697,2.366c3.656,4.547 2.008,6.168 0.1,8.048l-0.338,0.333c-0.312,0.312 -0.903,1.757 4.586,7.244c1.793,1.792 3.319,3.103 4.539,3.897c0.769,0.499 2.143,1.253 2.706,0.69l0.339,-0.343c1.877,-1.905 3.498,-3.547 8.044,0.107c1.541,1.238 2.315,2.446 2.366,3.696c0.075,1.811 -1.368,3.18 -2.64,4.387c-0.209,0.199 -0.413,0.392 -0.603,0.582c-0.661,0.659 -1.711,0.99 -3.037,0.99Zm-19.887,-30.925c-1.285,0 -2.448,1.223 -3.476,2.303c-0.207,0.218 -0.409,0.43 -0.606,0.627c-0.986,0.985 -0.884,3.577 0.257,6.602c1.41,3.738 4.211,7.822 7.888,11.499c3.677,3.677 7.76,6.477 11.497,7.887c3.025,1.142 5.617,1.241 6.603,0.254c0.197,-0.195 0.407,-0.396 0.622,-0.6c1.107,-1.052 2.361,-2.242 2.307,-3.564c-0.038,-0.907 -0.699,-1.884 -1.965,-2.901c-3.789,-3.044 -4.847,-1.967 -6.604,-0.189l-0.344,0.347c-0.837,0.841 -2.2,0.657 -4.054,-0.548c-1.281,-0.834 -2.867,-2.193 -4.713,-4.038c-4.554,-4.554 -6.012,-7.34 -4.586,-8.767l0.344,-0.34c1.784,-1.757 2.861,-2.817 -0.184,-6.606c-1.018,-1.264 -1.995,-1.925 -2.902,-1.964c-0.028,-0.001 -0.057,-0.002 -0.084,-0.002Z" style="fill:#3d4fae;fill-rule:nonzero;"/></svg>