<?xml version="1.0" encoding="UTF-8" standalone="no"?><!DOCTYPE svg PUBLIC "-//W3C//DTD SVG 1.1//EN" "http://www.w3.org/Graphics/SVG/1.1/DTD/svg11.dtd"><svg width="100%" height="100%" viewBox="0 0 41 40" version="1.1" xmlns="http://www.w3.org/2000/svg" xmlns:xlink="http://www.w3.org/1999/xlink" xml:space="preserve" xmlns:serif="http://www.serif.com/" style="fill-rule:evenodd;clip-rule:evenodd;stroke-linejoin:round;stroke-miterlimit:1.41421;"><g><path d="M40.182,0l-40,0l40,40l0,-40Z" style="fill:#d9332d;"/><path d="M25.476,16.004l1.681,0l5.569,-9.729l-1.667,0l-5.583,9.729Zm2.819,-7.303c0,-0.354 -0.067,-0.68 -0.189,-0.991c-0.122,-0.312 -0.299,-0.582 -0.529,-0.813c-0.231,-0.23 -0.502,-0.419 -0.814,-0.555c-0.311,-0.135 -0.664,-0.203 -1.043,-0.203c-0.38,0 -0.733,0.068 -1.044,0.203c-0.311,0.136 -0.582,0.326 -0.812,0.556c-0.231,0.23 -0.407,0.501 -0.528,0.813c-0.122,0.312 -0.19,0.637 -0.19,0.99c0,0.352 0.068,0.677 0.19,0.989c0.121,0.311 0.297,0.582 0.528,0.812c0.23,0.23 0.501,0.42 0.812,0.555c0.311,0.136 0.664,0.203 1.044,0.203c0.379,0 0.732,-0.067 1.043,-0.203c0.312,-0.135 0.583,-0.325 0.814,-0.555c0.23,-0.23 0.407,-0.501 0.529,-0.812c0.122,-0.312 0.189,-0.637 0.189,-0.989Zm-1.748,0c0,0.216 -0.082,0.393 -0.231,0.542c-0.149,0.149 -0.352,0.216 -0.61,0.216c-0.258,0 -0.461,-0.067 -0.61,-0.216c-0.149,-0.149 -0.231,-0.326 -0.231,-0.542c0,-0.217 0.068,-0.393 0.217,-0.543c0.15,-0.15 0.353,-0.218 0.61,-0.218c0.258,0 0.461,0.068 0.611,0.217c0.149,0.15 0.216,0.326 0.216,0.544l0.028,0Zm8.496,4.877c0,-0.353 -0.067,-0.678 -0.189,-0.989c-0.122,-0.312 -0.299,-0.583 -0.529,-0.813c-0.23,-0.23 -0.501,-0.42 -0.813,-0.555c-0.312,-0.135 -0.664,-0.203 -1.044,-0.203c-0.379,0 -0.731,0.068 -1.043,0.203c-0.311,0.135 -0.582,0.325 -0.812,0.555c-0.23,0.23 -0.406,0.501 -0.528,0.813c-0.122,0.311 -0.19,0.636 -0.19,0.989c0,0.352 0.068,0.677 0.19,0.989c0.122,0.312 0.298,0.583 0.528,0.813c0.23,0.231 0.501,0.42 0.812,0.556c0.312,0.135 0.664,0.203 1.043,0.203c0.38,0 0.732,-0.068 1.044,-0.203c0.312,-0.136 0.583,-0.325 0.813,-0.556c0.23,-0.23 0.407,-0.501 0.529,-0.813c0.122,-0.312 0.189,-0.637 0.189,-0.989Zm-1.748,0c0,0.217 -0.081,0.393 -0.23,0.542c-0.149,0.151 -0.353,0.218 -0.61,0.218c-0.258,0 -0.461,-0.067 -0.61,-0.217c-0.149,-0.149 -0.23,-0.325 -0.23,-0.542c0,-0.218 0.067,-0.394 0.216,-0.543c0.15,-0.149 0.353,-0.217 0.61,-0.217c0.258,0 0.461,0.068 0.61,0.217c0.149,0.149 0.217,0.325 0.217,0.543l0.027,-0.001Z" style="fill:#fff;fill-rule:nonzero;"/></g></svg>