<?xml version="1.0" encoding="UTF-8" standalone="no"?><!DOCTYPE svg PUBLIC "-//W3C//DTD SVG 1.1//EN" "http://www.w3.org/Graphics/SVG/1.1/DTD/svg11.dtd"><svg width="100%" height="100%" viewBox="0 0 18 32" version="1.1" xmlns="http://www.w3.org/2000/svg" xmlns:xlink="http://www.w3.org/1999/xlink" xml:space="preserve" xmlns:serif="http://www.serif.com/" style="fill-rule:evenodd;clip-rule:evenodd;stroke-linejoin:round;stroke-miterlimit:1.41421;"><path id="scrollr" d="M0.341,2.416c-0.199,-0.199 -0.311,-0.468 -0.311,-0.749c0,-0.281 0.112,-0.551 0.311,-0.75c0,0 0.001,0 0.001,-0.001c0.199,-0.199 0.468,-0.31 0.749,-0.31c0.282,0 0.551,0.111 0.75,0.31c3.162,3.162 15.25,15.251 15.25,15.251c0,0 -12.088,12.088 -15.25,15.25c-0.199,0.199 -0.468,0.311 -0.75,0.311c-0.281,0 -0.55,-0.112 -0.749,-0.311c0,0 -0.001,0 -0.001,-0.001c-0.199,-0.199 -0.311,-0.468 -0.311,-0.749c0,-0.281 0.112,-0.551 0.311,-0.75c2.97,-2.97 13.75,-13.75 13.75,-13.75c0,0 -10.78,-10.781 -13.75,-13.751Z" style="fill:#fff;"/></svg>