<?xml version="1.0" encoding="UTF-8" standalone="no"?><!DOCTYPE svg PUBLIC "-//W3C//DTD SVG 1.1//EN" "http://www.w3.org/Graphics/SVG/1.1/DTD/svg11.dtd"><svg width="100%" height="100%" viewBox="0 0 32 18" version="1.1" xmlns="http://www.w3.org/2000/svg" xmlns:xlink="http://www.w3.org/1999/xlink" xml:space="preserve" xmlns:serif="http://www.serif.com/" style="fill-rule:evenodd;clip-rule:evenodd;stroke-linejoin:round;stroke-miterlimit:1.41421;"><path id="scrollr" d="M29.311,0.947c0.199,-0.199 0.469,-0.311 0.75,-0.311c0.281,0 0.551,0.112 0.749,0.311c0.001,0 0.001,0 0.001,0.001c0.199,0.198 0.311,0.468 0.311,0.749c0,0.281 -0.112,0.551 -0.311,0.75c-3.162,3.162 -15.25,15.25 -15.25,15.25c0,0 -12.088,-12.088 -15.251,-15.25c-0.198,-0.199 -0.31,-0.469 -0.31,-0.75c0,-0.281 0.112,-0.551 0.31,-0.749c0.001,-0.001 0.001,-0.001 0.001,-0.001c0.199,-0.199 0.469,-0.311 0.75,-0.311c0.281,0 0.551,0.112 0.749,0.311c2.97,2.97 13.751,13.75 13.751,13.75c0,0 10.781,-10.78 13.75,-13.75Z" style="fill:#fff;"/></svg>