<?xml version="1.0" encoding="UTF-8" standalone="no"?><!DOCTYPE svg PUBLIC "-//W3C//DTD SVG 1.1//EN" "http://www.w3.org/Graphics/SVG/1.1/DTD/svg11.dtd"><svg width="100%" height="100%" viewBox="0 0 10 16" version="1.1" xmlns="http://www.w3.org/2000/svg" xmlns:xlink="http://www.w3.org/1999/xlink" xml:space="preserve" xmlns:serif="http://www.serif.com/" style="fill-rule:evenodd;clip-rule:evenodd;stroke-linejoin:round;stroke-miterlimit:1.41421;"><path id="scrollr" d="M9.084,13.948c0.199,0.198 0.31,0.468 0.31,0.749c0,0.281 -0.111,0.551 -0.31,0.75c-0.001,0 -0.001,0 -0.001,0.001c-0.199,0.198 -0.469,0.31 -0.75,0.31c-0.281,0 -0.55,-0.112 -0.749,-0.31c-3.162,-3.163 -7.251,-7.251 -7.251,-7.251c0,0 4.089,-4.088 7.251,-7.25c0.199,-0.199 0.468,-0.311 0.749,-0.311c0.281,0 0.551,0.112 0.75,0.311c0,0 0,0 0.001,0.001c0.199,0.198 0.31,0.468 0.31,0.749c0,0.281 -0.111,0.551 -0.31,0.75c-2.97,2.97 -5.751,5.75 -5.751,5.75c0,0 2.781,2.781 5.751,5.751Z" style="fill:#475dd2;"/></svg>