<?xml version="1.0" encoding="UTF-8" standalone="no"?><!DOCTYPE svg PUBLIC "-//W3C//DTD SVG 1.1//EN" "http://www.w3.org/Graphics/SVG/1.1/DTD/svg11.dtd"><svg width="100%" height="100%" viewBox="0 0 17 17" version="1.1" xmlns="http://www.w3.org/2000/svg" xmlns:xlink="http://www.w3.org/1999/xlink" xml:space="preserve" xmlns:serif="http://www.serif.com/" style="fill-rule:evenodd;clip-rule:evenodd;stroke-linejoin:round;stroke-miterlimit:1.41421;"><path d="M16.256,15.82l-3.889,-3.888c1.043,-1.199 1.675,-2.764 1.675,-4.474c0,-3.764 -3.063,-6.822 -6.824,-6.822c-3.765,0 -6.824,3.062 -6.824,6.822c0,3.761 3.063,6.822 6.824,6.822c1.71,0 3.275,-0.631 4.475,-1.674l3.889,3.888c0.092,0.092 0.216,0.142 0.337,0.142c0.12,0 0.245,-0.046 0.337,-0.142c0.184,-0.184 0.184,-0.489 0,-0.674Zm-14.907,-8.362c0,-3.235 2.633,-5.864 5.865,-5.864c3.237,0 5.866,2.632 5.866,5.864c0,3.232 -2.629,5.868 -5.866,5.868c-3.232,0 -5.865,-2.632 -5.865,-5.868Z" style="fill:#475dd2;fill-rule:nonzero;"/></svg>