<?xml version="1.0" encoding="UTF-8" standalone="no"?><!DOCTYPE svg PUBLIC "-//W3C//DTD SVG 1.1//EN" "http://www.w3.org/Graphics/SVG/1.1/DTD/svg11.dtd"><svg width="100%" height="100%" viewBox="0 0 28 33" version="1.1" xmlns="http://www.w3.org/2000/svg" xmlns:xlink="http://www.w3.org/1999/xlink" xml:space="preserve" xmlns:serif="http://www.serif.com/" style="fill-rule:evenodd;clip-rule:evenodd;stroke-linejoin:round;stroke-miterlimit:1.41421;"><g id="sms"><path d="M15.784,0.517c1.295,0 2.349,1.054 2.349,2.349l0,4.051l9.6,0l0,11.2l-9.6,0l0,12.05c0,1.295 -1.054,2.35 -2.35,2.35l-13.434,0c-1.295,0 -2.349,-1.055 -2.349,-2.35l0,-27.301c0,-1.295 1.054,-2.349 2.349,-2.349l13.435,0Zm0,30.933c0.707,0 1.283,-0.575 1.283,-1.283l0,-4.05l-16,0l0,4.05c0,0.708 0.575,1.283 1.282,1.283l13.435,0Zm-7.251,-4.8c-1.176,0 -2.133,0.957 -2.133,2.133c0,1.177 0.957,2.134 2.133,2.134c1.177,0 2.134,-0.957 2.134,-2.134c0,-1.176 -0.957,-2.133 -2.134,-2.133Zm0,3.2c-0.588,0 -1.066,-0.478 -1.066,-1.067c0,-0.588 0.478,-1.066 1.066,-1.066c0.589,0 1.067,0.478 1.067,1.066c0,0.589 -0.478,1.067 -1.067,1.067Zm8.534,-22.933l0,-2.134l-16,0l0,20.267l16,0l0,-6.933l-2.489,0l-4.978,3.733l0,-3.733l-2.133,0l0,-11.2l9.6,0Zm9.6,10.133l0,-9.067l-18.134,0l0,9.067l2.134,0l0,2.667l3.555,-2.667l12.445,0Zm-2.667,-3.733c0.294,0 0.533,0.238 0.533,0.533c0,0.295 -0.239,0.533 -0.533,0.533l-12.8,0c-0.294,0 -0.533,-0.238 -0.533,-0.533c0,-0.295 0.239,-0.533 0.533,-0.533l12.8,0Zm-7.467,-2.667c0.295,0 0.534,0.239 0.534,0.533c0,0.295 -0.239,0.534 -0.534,0.534l-5.333,0c-0.294,0 -0.533,-0.239 -0.533,-0.534c0,-0.294 0.239,-0.533 0.533,-0.533l5.333,0Zm0.534,-6.933l0,-0.851c0,-0.707 -0.576,-1.283 -1.284,-1.283l-13.434,0c-0.707,0 -1.282,0.576 -1.282,1.283l0,0.851l16,0Zm-5.867,-1.6c0.294,0 0.533,0.238 0.533,0.533c0,0.295 -0.239,0.533 -0.533,0.533l-0.533,0c-0.295,0 -0.534,-0.238 -0.534,-0.533c0,-0.295 0.239,-0.533 0.534,-0.533l0.533,0Zm-2.133,0c0.294,0 0.533,0.238 0.533,0.533c0,0.295 -0.239,0.533 -0.533,0.533l-2.134,0c-0.294,0 -0.533,-0.238 -0.533,-0.533c0,-0.295 0.239,-0.533 0.533,-0.533l2.134,0Z" style="fill:#3d4fae;"/></g></svg>