<?xml version="1.0" encoding="UTF-8" standalone="no"?><!DOCTYPE svg PUBLIC "-//W3C//DTD SVG 1.1//EN" "http://www.w3.org/Graphics/SVG/1.1/DTD/svg11.dtd"><svg width="100%" height="100%" viewBox="0 0 32 33" version="1.1" xmlns="http://www.w3.org/2000/svg" xmlns:xlink="http://www.w3.org/1999/xlink" xml:space="preserve" xmlns:serif="http://www.serif.com/" style="fill-rule:evenodd;clip-rule:evenodd;stroke-linejoin:round;stroke-miterlimit:1.41421;"><g id="tv-console"><path d="M30.933,0.517l0,16l-14.4,0l0,0.533l4.267,0l0,1.6l8,0c1.765,0 3.2,1.435 3.2,3.2c0,1.113 -0.571,2.093 -1.435,2.667c0.864,0.573 1.435,1.554 1.435,2.666c0,1.583 -1.156,2.898 -2.667,3.152l0,0.048l-1.066,0l0,2.134l-3.2,0l0,-2.134l-18.134,0l0,2.134l-3.2,0l0,-2.134l-0.533,0c-1.765,0 -3.2,-1.435 -3.2,-3.2c0,-1.112 0.571,-2.093 1.435,-2.666c-0.864,-0.574 -1.435,-1.554 -1.435,-2.667c0,-1.765 1.435,-3.2 3.2,-3.2l8,0l0,-1.6l4.267,0l0,-0.533l-14.4,0l0,-16l29.866,0Zm-25.066,30.933l0,-1.067l-1.067,0l0,1.067l1.067,0Zm21.333,0l0,-1.067l-1.067,0l0,1.067l1.067,0Zm-15.467,-2.133l0,-2.134l-6.933,0l0,2.134l6.933,0Zm6.934,0l0,-2.667l-4.267,0l0,2.667l4.267,0Zm9.6,0l0,-2.134l-6.934,0l0,2.134l6.934,0Zm1.066,-3.2l0,3.124c0.918,-0.238 1.6,-1.066 1.6,-2.058c0,-1.176 -0.956,-2.133 -2.133,-2.133l-25.6,0c-1.177,0 -2.133,0.957 -2.133,2.133c0,1.177 0.956,2.134 2.133,2.134l0.533,0l0,-3.2l9.067,0l0,3.2l0.533,0l0,-3.734l6.4,0l0,3.734l0.534,0l0,-3.2l9.066,0Zm-6.933,1.066c0.294,0 0.533,0.239 0.533,0.534c0,0.294 -0.239,0.533 -0.533,0.533c-0.294,0 -0.533,-0.239 -0.533,-0.533c0,-0.295 0.239,-0.534 0.533,-0.534Zm-16.533,0c0.294,0 0.533,0.239 0.533,0.534c0,0.294 -0.239,0.533 -0.533,0.533c-0.295,0 -0.534,-0.239 -0.534,-0.533c0,-0.295 0.239,-0.534 0.534,-0.534Zm11.733,-0.533c0.294,0 0.533,0.239 0.533,0.533c0,0.295 -0.239,0.534 -0.533,0.534c-0.294,0 -0.533,-0.239 -0.533,-0.534c0,-0.294 0.239,-0.533 0.533,-0.533Zm11.2,-2.667c1.177,0 2.133,-0.956 2.133,-2.133c0,-1.176 -0.956,-2.133 -2.133,-2.133l-16.533,0l0,4.266l1.6,0l0,-3.2l9.6,0l0,3.2l5.333,0Zm-6.4,0l0,-2.133l-7.467,0l0,2.133l7.467,0Zm-11.2,0l0,-4.266l-1.067,0l0,4.266l1.067,0Zm-2.133,0l0,-4.266l-1.067,0l0,4.266l1.067,0Zm-2.134,0l0,-4.266l-1.066,0l0,4.266l1.066,0Zm-2.133,0l0,-4.266l-1.6,0c-1.177,0 -2.133,0.957 -2.133,2.133c0,1.177 0.956,2.133 2.133,2.133l1.6,0Zm16,-2.133c0.294,0 0.533,0.239 0.533,0.533c0,0.295 -0.239,0.534 -0.533,0.534c-0.294,0 -0.533,-0.239 -0.533,-0.534c0,-0.294 0.239,-0.533 0.533,-0.533Zm-1.067,-3.2l0,-0.533l-7.466,0l0,0.533l7.466,0Zm10.134,-3.467l0,-13.6l-27.734,0l0,13.6l27.734,0Z" style="fill:#3d4fae;"/></g></svg>