<?xml version="1.0" encoding="UTF-8" standalone="no"?><!DOCTYPE svg PUBLIC "-//W3C//DTD SVG 1.1//EN" "http://www.w3.org/Graphics/SVG/1.1/DTD/svg11.dtd"><svg width="100%" height="100%" viewBox="0 0 36 29" version="1.1" xmlns="http://www.w3.org/2000/svg" xmlns:xlink="http://www.w3.org/1999/xlink" xml:space="preserve" xmlns:serif="http://www.serif.com/" style="fill-rule:evenodd;clip-rule:evenodd;stroke-linejoin:round;stroke-miterlimit:1.41421;"><g id="tv"><path d="M34.31,0.517c0.932,0 1.69,0.758 1.69,1.69l0,20.054c0,0.932 -0.758,1.69 -1.69,1.69l-12.437,0l0,1.23c0,1.127 0.918,2.045 2.045,2.045l1.86,0c0.356,0 0.645,0.289 0.645,0.645c0,0.357 -0.289,0.646 -0.645,0.646l-15.556,0c-0.356,0 -0.645,-0.289 -0.645,-0.646c0,-0.356 0.289,-0.645 0.645,-0.645l1.86,0c1.127,0 2.044,-0.918 2.044,-2.045l0,-1.23l-12.436,0c-0.932,0 -1.69,-0.758 -1.69,-1.69l0,-20.054c0,-0.932 0.758,-1.69 1.69,-1.69l32.62,0Zm-13.727,23.434l-5.165,0l0,1.23c0,0.77 -0.264,1.48 -0.704,2.045l6.572,0c-0.44,-0.565 -0.703,-1.275 -0.703,-2.045l0,-1.23Zm13.727,-22.143l-32.62,0c-0.22,0 -0.399,0.179 -0.399,0.399l0,20.37l33.418,0l0,-20.37c0,-0.22 -0.179,-0.399 -0.399,-0.399Zm-15.203,7.156c-0.252,-0.252 -0.661,-0.252 -0.913,0l-4.562,4.562c-0.252,0.252 -0.252,0.66 0,0.912c0.126,0.127 0.291,0.19 0.457,0.19c0.165,0 0.33,-0.063 0.456,-0.19l4.562,-4.561c0.252,-0.252 0.252,-0.661 0,-0.913Zm2.704,2.643c-0.252,-0.252 -0.661,-0.252 -0.913,0l-1.818,1.817c-0.252,0.253 -0.252,0.661 0,0.913c0.127,0.126 0.292,0.189 0.457,0.189c0.165,0 0.33,-0.063 0.456,-0.189l1.818,-1.817c0.252,-0.252 0.252,-0.661 0,-0.913Z" style="fill:#3d4fae;"/></g></svg>