<?xml version="1.0" encoding="UTF-8" standalone="no"?><!DOCTYPE svg PUBLIC "-//W3C//DTD SVG 1.1//EN" "http://www.w3.org/Graphics/SVG/1.1/DTD/svg11.dtd"><svg width="100%" height="100%" viewBox="0 0 32 31" version="1.1" xmlns="http://www.w3.org/2000/svg" xmlns:xlink="http://www.w3.org/1999/xlink" xml:space="preserve" xmlns:serif="http://www.serif.com/" style="fill-rule:evenodd;clip-rule:evenodd;stroke-linejoin:round;stroke-miterlimit:1.41421;"><g id="wifi"><path d="M21.333,17.66l0,-7.5c0,-0.886 0.718,-1.608 1.6,-1.608c0.882,0 1.6,0.722 1.6,1.608l0,7.5l1.792,0c0.336,0 0.656,0.102 0.928,0.298l3.497,3.047c0.037,0.032 0.067,0.069 0.093,0.107c0.687,0.357 1.157,1.076 1.157,1.905l0,5.357c0,1.182 -0.957,2.143 -2.133,2.143l-27.734,0c-1.176,0 -2.133,-0.961 -2.133,-2.143l0,-5.357c0,-0.828 0.47,-1.548 1.157,-1.904c0.025,-0.039 0.056,-0.076 0.093,-0.108l3.456,-3.016c0.313,-0.226 0.634,-0.329 0.969,-0.329l1.792,0l0,-7.5c0,-0.886 0.718,-1.608 1.6,-1.608c0.882,0 1.6,0.722 1.6,1.608l0,7.5l10.666,0Zm8.534,4.285l-27.734,0c-0.588,0 -1.066,0.481 -1.066,1.072l0,5.357c0,0.591 0.478,1.071 1.066,1.071l27.734,0c0.588,0 1.066,-0.48 1.066,-1.071l0,-5.357c0,-0.591 -0.478,-1.072 -1.066,-1.072Zm-25.067,1.072c-1.47,0 -2.667,1.201 -2.667,2.678c0,1.477 1.197,2.679 2.667,2.679c1.47,0 2.667,-1.202 2.667,-2.679c0,-1.477 -1.197,-2.678 -2.667,-2.678Zm17.067,0.536c0.295,0 0.533,0.239 0.533,0.535l0,2.143c0,0.296 -0.238,0.536 -0.533,0.536l0,0.535c0,0.297 -0.239,0.536 -0.534,0.536l-2.133,0c-0.295,0 -0.533,-0.239 -0.533,-0.536l0,-0.535c-0.295,0 -0.534,-0.24 -0.534,-0.536l0,-2.143c0,-0.296 0.239,-0.535 0.534,-0.535l3.2,0Zm5.333,0c0.295,0 0.533,0.239 0.533,0.535l0,2.143c0,0.296 -0.238,0.536 -0.533,0.536l0,0.535c0,0.297 -0.238,0.536 -0.533,0.536l-2.134,0c-0.295,0 -0.533,-0.239 -0.533,-0.536l0,-0.535c-0.295,0 -0.533,-0.24 -0.533,-0.536l0,-2.143c0,-0.296 0.238,-0.535 0.533,-0.535l3.2,0Zm-10.667,0c0.295,0 0.534,0.239 0.534,0.535l0,2.143c0,0.296 -0.239,0.536 -0.534,0.536l0,0.535c0,0.297 -0.238,0.536 -0.533,0.536l-2.133,0c-0.295,0 -0.534,-0.239 -0.534,-0.536l0,-0.535c-0.294,0 -0.533,-0.24 -0.533,-0.536l0,-2.143c0,-0.296 0.239,-0.535 0.533,-0.535l3.2,0Zm-11.733,3.749c-0.882,0 -1.6,-0.721 -1.6,-1.607c0,-0.698 0.446,-1.293 1.067,-1.515l0,1.515c0,0.297 0.239,0.536 0.533,0.536c0.294,0 0.533,-0.239 0.533,-0.536l0,-1.515c0.621,0.222 1.067,0.817 1.067,1.515c0,0.886 -0.718,1.607 -1.6,1.607Zm16.533,-1.607l0,-1.071l-2.133,0l0,1.071c0.295,0 0.533,0.24 0.533,0.536l0,0.536l1.067,0l0,-0.536c0,-0.296 0.238,-0.536 0.533,-0.536Zm5.334,0l0,-1.071l-2.134,0l0,1.071c0.295,0 0.534,0.24 0.534,0.536l0,0.536l1.066,0l0,-0.536c0,-0.296 0.239,-0.536 0.534,-0.536Zm-10.667,-1.071l-2.133,0l0,1.071c0.294,0 0.533,0.24 0.533,0.536l0,0.536l1.067,0l0,-0.536c0,-0.296 0.239,-0.536 0.533,-0.536l0,-1.071Zm-8.533,-5.893l-1.792,0c-0.112,0 -0.22,0.034 -0.31,0.099l-2.339,2.044l25.947,0l-2.379,-2.076c-0.049,-0.032 -0.158,-0.067 -0.269,-0.067l-1.792,0c0,0.621 -0.673,1.072 -1.6,1.072l-0.068,0c-0.902,-0.027 -1.532,-0.467 -1.532,-1.072l-10.666,0c0,0.621 -0.673,1.072 -1.6,1.072l-0.054,0c-0.916,-0.027 -1.546,-0.467 -1.546,-1.072Zm14.933,-8.571c0,-0.296 0.239,-0.536 0.533,-0.536c0.295,0 0.534,0.24 0.534,0.536l0,8.46c-0.085,0.046 -0.274,0.111 -0.572,0.111c-0.245,-0.007 -0.415,-0.066 -0.495,-0.111l0,-8.46Zm-13.333,8.571c0.266,0 0.45,-0.065 0.533,-0.111l0,-8.46c0,-0.296 -0.239,-0.536 -0.533,-0.536c-0.294,0 -0.534,0.24 -0.534,0.536l0,8.46c0.08,0.045 0.25,0.104 0.496,0.111l0.038,0Zm17.441,-10.527c-0.193,0.224 -0.167,0.563 0.057,0.755c0.101,0.087 0.224,0.129 0.347,0.129c0.15,0 0.299,-0.063 0.405,-0.187c2.027,-2.375 2.027,-5.822 0,-8.197c-0.191,-0.225 -0.528,-0.25 -0.752,-0.058c-0.224,0.192 -0.249,0.531 -0.057,0.755c1.681,1.971 1.681,4.832 0,6.803Zm-13.867,0c-0.192,0.224 -0.166,0.562 0.057,0.755c0.1,0.087 0.224,0.129 0.347,0.129c0.15,0 0.3,-0.063 0.405,-0.187c2.027,-2.375 2.027,-5.822 0,-8.197c-0.192,-0.225 -0.529,-0.25 -0.752,-0.058c-0.223,0.193 -0.249,0.531 -0.057,0.755c1.682,1.971 1.682,4.832 0,6.803Zm6.34,0.884c0.123,0 0.247,-0.042 0.347,-0.129c0.224,-0.192 0.25,-0.531 0.058,-0.755c-1.682,-1.971 -1.682,-4.832 0,-6.803c0.192,-0.224 0.166,-0.563 -0.058,-0.755c-0.223,-0.192 -0.559,-0.167 -0.751,0.058c-2.028,2.375 -2.028,5.822 0,8.197c0.105,0.123 0.255,0.187 0.404,0.187Zm-13.866,0c0.123,0 0.246,-0.042 0.347,-0.129c0.223,-0.192 0.249,-0.531 0.058,-0.755c-1.683,-1.971 -1.683,-4.832 0,-6.803c0.191,-0.224 0.165,-0.563 -0.059,-0.755c-0.223,-0.192 -0.56,-0.166 -0.752,0.058c-2.027,2.375 -2.027,5.822 0,8.197c0.106,0.123 0.255,0.187 0.406,0.187Zm5.706,-1.23c0.104,0.106 0.242,0.159 0.379,0.159c0.135,0 0.271,-0.052 0.375,-0.156c0.808,-0.805 1.264,-1.922 1.252,-3.053c0.012,-1.142 -0.444,-2.259 -1.252,-3.064c-0.209,-0.209 -0.547,-0.208 -0.754,0.003c-0.207,0.21 -0.206,0.549 0.004,0.757c0.604,0.602 0.945,1.438 0.935,2.304c0.01,0.855 -0.331,1.691 -0.935,2.293c-0.21,0.208 -0.211,0.547 -0.004,0.757Zm-4.237,0.003c0.105,0.104 0.24,0.156 0.376,0.156c0.137,0 0.274,-0.053 0.378,-0.158c0.208,-0.211 0.207,-0.55 -0.003,-0.758c-0.603,-0.602 -0.945,-1.438 -0.935,-2.304c-0.01,-0.855 0.332,-1.691 0.936,-2.293c0.209,-0.209 0.21,-0.548 0.003,-0.758c-0.208,-0.209 -0.545,-0.21 -0.755,-0.002c-0.807,0.805 -1.263,1.922 -1.251,3.053c-0.012,1.142 0.444,2.259 1.251,3.064Zm13.867,0c0.104,0.104 0.24,0.156 0.376,0.156c0.137,0 0.274,-0.053 0.378,-0.158c0.208,-0.211 0.207,-0.55 -0.003,-0.758c-0.604,-0.602 -0.945,-1.438 -0.935,-2.304c-0.01,-0.855 0.331,-1.691 0.935,-2.293c0.21,-0.209 0.211,-0.548 0.003,-0.758c-0.208,-0.21 -0.546,-0.211 -0.754,-0.002c-0.808,0.805 -1.264,1.922 -1.251,3.053c-0.013,1.142 0.443,2.259 1.251,3.064Zm5.176,-3.053c0.009,0.855 -0.331,1.691 -0.936,2.293c-0.209,0.209 -0.21,0.548 -0.003,0.758c0.104,0.105 0.242,0.158 0.379,0.158c0.136,0 0.272,-0.052 0.375,-0.156c0.809,-0.805 1.264,-1.922 1.251,-3.053c0.013,-1.142 -0.442,-2.259 -1.251,-3.064c-0.208,-0.209 -0.546,-0.208 -0.754,0.002c-0.207,0.211 -0.206,0.55 0.003,0.758c0.605,0.602 0.946,1.438 0.936,2.304Zm-16.56,1.602c0.882,0 1.6,-0.722 1.6,-1.608c0,-0.886 -0.718,-1.607 -1.6,-1.607c-0.882,0 -1.6,0.721 -1.6,1.607c0,0.886 0.718,1.608 1.6,1.608Zm13.866,0c0.882,0 1.6,-0.722 1.6,-1.608c0,-0.886 -0.718,-1.607 -1.6,-1.607c-0.882,0 -1.6,0.721 -1.6,1.607c0,0.886 0.718,1.608 1.6,1.608Zm-13.866,-2.143c0.294,0 0.533,0.24 0.533,0.535c0,0.296 -0.239,0.536 -0.533,0.536c-0.294,0 -0.534,-0.24 -0.534,-0.536c0,-0.295 0.24,-0.535 0.534,-0.535Zm13.866,0c0.295,0 0.534,0.24 0.534,0.535c0,0.296 -0.239,0.536 -0.534,0.536c-0.294,0 -0.533,-0.24 -0.533,-0.536c0,-0.295 0.239,-0.535 0.533,-0.535Z" style="fill:#3d4fae;"/></g></svg>